<?xml version="1.0" encoding="utf-8"?><!DOCTYPE svg  PUBLIC '-//W3C//DTD SVG 1.1//EN'  'http://www.w3.org/Graphics/SVG/1.1/DTD/svg11.dtd'><svg enable_background="new 0 0 1000 846" height="846px" pretty_print="False" style="stroke-linejoin: round; stroke:#000; fill: none;" version="1.1" viewBox="0 0 1000 846" width="1000px" xmlns="http://www.w3.org/2000/svg" xmlns:xlink="http://www.w3.org/1999/xlink"><defs><style type="text/css"><![CDATA[path { fill-rule: evenodd; }]]></style></defs><metadata><views><view h="846.205126989" padding="0" w="1000"><proj flip="auto" id="robinson" lon0="-75.0709458819"/><bbox h="4.51" w="5.34" x="-1028.08" y="-674.12"/></view></views></metadata><g class="" id="neighborhoods"><path d="M625.017760,402.790405L625.026757,402.697511L615.071595,404.142859L591.871296,421.565634L571.962489,432.226929L570.962777,432.759092L571.021857,432.874482L571.046797,432.923191L571.905731,434.600794L576.735383,441.235167L582.927058,455.805151L585.201568,459.453435L598.863669,474.925108L601.578621,472.080863L610.756434,476.474699L610.801283,476.437306L631.167757,456.077761L638.113388,445.640182L641.698570,437.530415L656.074533,420.688079L657.848554,418.545829L641.479536,408.582691L638.135228,410.842243L631.035013,410.737013L624.647289,406.615097L625.017760,402.790405Z "/><path d="M840.428738,127.237343L834.254487,117.830015L825.487943,114.666670L805.680021,97.151584L797.729148,96.014605L778.294511,78.668441L776.020099,80.197437L750.541766,97.318105L746.788394,99.812463L713.459924,129.884054L707.461425,135.302381L709.884327,134.820382L716.498671,146.518323L719.439389,147.560015L732.817909,149.183225L735.010440,153.039870L731.465640,159.261585L731.166290,177.305760L735.821145,181.654558L740.694462,179.514036L752.157108,171.292727L757.873053,189.522496L760.834410,204.538311L756.389200,208.036900L756.449053,215.394014L756.487081,215.350430L759.466031,211.936566L782.781161,190.384010L783.083049,190.317480L790.787465,183.255487L797.414317,177.235586L801.949326,172.999963L812.763429,163.462415L822.623513,154.486643L837.697814,140.671750L845.081739,134.092508L840.428738,127.237343Z "/><path d="M408.531825,226.166979L410.644908,224.248789L416.702973,218.901531L419.404075,216.700324L450.141928,189.563927L447.340061,186.988330L424.704383,165.893162L400.236059,187.237254L387.350961,198.476490L382.394027,202.916972L389.805848,209.612779L391.426943,210.810648L406.199183,224.053482L408.531825,226.166979Z "/><path d="M288.147376,161.580246L298.908097,175.585205L299.469185,182.667181L308.445233,193.612375L314.869464,189.930456L318.650279,189.300051L311.386377,195.740785L312.743053,202.545178L297.791479,203.196122L294.081441,207.584305L299.486964,211.559698L297.028574,213.238530L299.499413,218.359643L308.137816,213.858746L311.117606,216.365738L306.849021,220.111737L305.444151,218.686588L300.333986,221.696799L290.031001,229.711345L292.133034,239.470144L290.649987,240.485787L293.022048,247.873541L295.455628,244.786262L299.159667,253.290031L305.128764,249.456854L302.959283,252.473970L298.453361,254.732777L294.558218,254.675376L290.034903,259.095779L289.479964,262.287565L294.578616,276.299888L296.014747,275.823499L301.498792,279.898139L301.574381,280.038755L304.596721,277.629446L305.791938,272.474735L309.651244,269.552012L309.548149,266.410947L330.649768,255.182503L334.626742,246.543213L337.483017,236.573065L336.623628,234.570239L342.042452,230.951728L342.955964,231.849049L354.936187,222.609374L356.009618,222.013729L357.832898,220.789325L366.452985,214.413443L380.806056,201.500364L377.679396,198.672529L344.105673,168.945288L340.879327,165.028244L334.574528,161.537505L317.190442,144.402023L312.418450,140.202374L290.678637,159.331711L288.147376,161.580246Z "/><path d="M347.228070,339.340345L341.119352,342.317251L335.809181,343.134210L323.469233,351.744840L322.899192,354.355805L313.010765,360.326839L304.784727,366.423784L299.165171,371.625838L291.534742,380.144301L283.716164,382.535458L281.844864,381.651333L274.672197,389.502055L274.706824,389.541309L277.301015,392.042454L277.527755,392.288521L276.470276,393.088475L283.254666,397.921270L306.297316,408.760552L306.826308,409.286993L309.089178,408.949081L308.847060,406.719877L317.816448,401.123876L333.083960,395.392008L342.528370,389.932099L351.422181,384.259126L359.302230,379.233275L361.223706,377.987474L369.330950,374.043441L368.120349,372.079228L365.156372,367.457540L361.832610,362.550240L361.814277,362.520317L359.684830,359.043590L353.621281,349.420914L353.119335,348.202852L350.581177,344.374654L350.567467,344.353978L349.448794,342.881090L349.312520,342.549376L348.444097,341.062188L347.228070,339.340345Z "/><path d="M403.284041,268.293406L403.421487,268.175663L414.758782,258.340280L424.826258,249.639840L426.203218,248.451824L429.613206,245.399953L428.029689,243.798861L419.006740,235.766146L417.490789,234.287712L410.256770,227.729926L408.531825,226.166979L406.199183,224.053482L391.426943,210.810648L389.805848,209.612779L382.394027,202.916972L382.287853,202.827440L381.810970,202.425311L381.576534,202.229267L381.085564,201.753166L380.806056,201.500364L366.452985,214.413443L357.832898,220.789325L356.009618,222.013729L355.738293,224.503363L359.658138,230.232979L363.439154,242.892360L367.560205,252.256751L371.661502,282.784833L371.878423,286.416150L372.108765,289.821634L372.240595,291.756410L372.611827,294.867848L372.658219,294.988805L372.939045,294.746582L387.939675,281.701479L401.271291,270.017629L403.284041,268.293406Z "/><path d="M234.267372,672.869439L238.661729,671.882605L239.687420,671.704867L240.457687,670.206739L248.076083,654.768859L248.693822,653.225919L251.054826,648.511883L251.733431,647.140838L250.398567,646.933903L247.375005,646.425613L258.274454,623.942210L262.122285,616.146037L255.667704,615.265923L254.191288,616.140743L247.951470,610.450387L246.788521,609.785662L244.591743,608.262091L241.621128,609.594128L234.003467,607.986329L226.292983,604.868226L219.106674,605.803683L216.339719,607.369043L214.146197,608.610025L211.447808,612.351864L210.670368,614.846459L212.105382,615.158282L205.336932,632.976434L201.338881,635.922879L200.560842,637.321469L220.774176,652.363741L224.458239,660.477416L216.812678,676.252170L233.373071,673.059180L234.267372,672.869439Z "/><path d="M520.793781,289.127635L504.399197,286.187270L502.149769,286.127988L498.195877,285.888030L493.242724,285.574556L493.398586,286.099861L486.319164,308.307918L485.335736,309.066380L481.927694,313.581340L480.400504,313.437921L474.860467,317.573032L468.474074,322.740704L469.727244,327.000113L473.601023,327.603577L459.590094,356.421521L455.600601,364.202219L460.466932,361.775467L465.556908,359.136251L468.100486,358.147539L475.456598,355.172130L475.549823,355.151426L492.108968,351.474576L512.857132,348.008680L519.405912,346.410544L526.207064,344.946417L531.306067,344.133882L532.359003,342.471657L537.417052,339.029969L542.026690,325.698060L538.578480,308.167898L538.918466,305.387754L548.113380,294.408698L548.948898,293.367577L548.823513,293.440738L546.544617,293.163274L535.580236,291.755215L522.757822,289.467921L520.806240,289.129794L520.793781,289.127635Z "/><path d="M707.216355,135.523758L701.682387,140.529011L689.027380,151.970946L688.953291,152.036278L683.202964,157.236238L688.204437,156.131497L687.844323,157.832090L713.447906,165.256659L715.742164,166.287898L695.819752,179.748061L697.396972,185.651271L699.325917,187.115059L687.088594,204.307172L686.509122,205.043204L686.608893,205.851216L693.704121,210.736576L716.214325,196.700220L718.239543,199.886550L721.662940,200.763424L738.130151,192.033837L745.991422,191.141697L750.484001,201.867466L750.099220,205.263710L743.585473,212.219330L740.353759,209.544790L738.385937,211.386887L734.574213,221.075897L741.642993,227.022576L748.526981,227.248897L749.157255,227.579926L749.854230,227.945996L754.291454,236.364987L753.902284,241.788924L748.611141,253.722667L736.870677,268.188200L733.671909,273.479748L717.909334,279.889814L709.810081,275.897678L709.803987,275.912995L708.388161,279.471942L707.658607,280.773561L706.575355,282.573818L707.394768,282.725212L717.503680,285.024068L727.437915,282.653704L729.436938,281.144001L735.566972,281.441153L744.802797,290.366132L746.778220,290.696248L747.998992,290.750616L748.354777,290.766462L756.535149,287.036799L758.550028,280.790307L761.531890,278.692060L772.645417,278.971567L778.801467,276.263731L786.877941,280.471426L786.000512,286.145201L779.353434,293.384490L788.326528,291.933436L788.852050,291.565648L786.946622,289.071863L791.846939,284.950461L798.189208,273.674836L795.526490,264.268418L786.492602,256.538459L786.456750,256.580472L780.682662,263.347338L784.978705,266.483665L777.809956,271.637138L763.827756,269.425335L757.942518,266.467367L753.538748,269.525663L750.896650,268.036918L753.228711,259.180776L760.999162,250.985238L761.023135,250.955447L762.491446,249.130815L761.606311,248.052441L768.511761,228.219689L760.072913,218.596820L756.487081,215.350430L756.449053,215.394014L756.389200,208.036900L760.834410,204.538311L757.873053,189.522496L752.157108,171.292727L740.694462,179.514036L735.821145,181.654558L731.166290,177.305760L731.465640,159.261585L735.010440,153.039870L732.817909,149.183225L719.439389,147.560015L716.498671,146.518323L709.884327,134.820382L707.461425,135.302381L707.216355,135.523758Z "/><path d="M778.294511,78.668441L797.729148,96.014605L805.680021,97.151584L825.487943,114.666670L834.254487,117.830015L840.428738,127.237343L845.081739,134.092508L849.974370,129.832181L864.243003,119.881281L887.505340,104.454070L890.088636,102.735457L890.105014,102.724560L898.521838,97.272750L901.669258,95.178444L905.162278,92.796146L909.351013,89.883317L905.461325,80.832799L904.154349,81.693021L897.838205,66.470569L917.947975,52.301190L924.541675,60.122628L944.841631,44.584728L944.764605,44.340492L943.112362,36.673016L933.844435,36.542429L932.426993,32.512922L939.322514,20.881912L937.742537,17.800939L922.449758,31.636144L890.876266,2.247568L886.489385,2.042396L868.934026,17.776069L778.471882,78.549202L778.294511,78.668441Z "/><path d="M356.009618,222.013729L354.936187,222.609374L342.955964,231.849049L342.042452,230.951728L336.623628,234.570239L337.483017,236.573065L334.626742,246.543213L330.649768,255.182503L309.548149,266.410947L309.651244,269.552012L305.791938,272.474735L304.596721,277.629446L301.574381,280.038755L301.864302,280.578106L299.750231,290.465300L303.644184,294.019541L310.849491,297.116410L306.976216,309.320231L309.693129,311.106076L313.231249,306.315380L318.315031,313.723022L322.079899,315.472530L322.323868,325.768952L328.941593,329.017210L334.066073,329.450835L335.695433,332.573573L340.915600,329.781755L339.864436,327.941813L334.066088,319.128853L353.967557,301.873773L368.946687,288.952902L371.878423,286.416150L371.661502,282.784833L367.560205,252.256751L363.439154,242.892360L359.658138,230.232979L355.738293,224.503363L356.009618,222.013729Z "/><path d="M496.089441,229.972756L477.284904,213.267072L465.634838,202.969872L450.450799,189.847863L450.141928,189.563927L419.404075,216.700324L416.702973,218.901531L410.644908,224.248789L408.531825,226.166979L410.256770,227.729926L417.490789,234.287712L419.006740,235.766146L428.029689,243.798861L429.613206,245.399953L432.606158,248.002979L434.758913,249.595166L442.146698,256.559933L443.328150,257.546911L443.625261,257.521100L453.627651,264.781828L456.232370,266.403466L473.905729,281.264287L474.014745,281.281761L476.591224,276.028815L478.598480,271.744514L482.627966,263.737447L498.163996,231.968291L496.089441,229.972756Z "/><path d="M288.100932,161.621504L283.385668,165.653598L280.772439,167.918573L279.293244,169.100851L279.162612,169.214947L292.870690,183.488986L278.889732,190.051549L280.991962,201.257541L279.772433,204.042706L269.900589,207.388941L269.325245,209.519773L277.339418,210.348479L284.234894,221.195062L277.935873,225.926434L280.855054,226.863065L279.545036,234.446809L276.321849,235.928883L276.369259,236.045030L280.068494,245.107994L273.953763,248.322306L269.991056,244.907141L268.758477,241.103947L263.999641,243.457587L266.762604,251.579560L261.455886,255.598773L262.490265,258.077318L254.088583,261.801454L263.783353,265.752881L282.653621,279.283389L279.414384,293.941087L279.448467,294.230185L279.653059,295.965567L280.073608,297.801490L280.799950,299.258708L284.953419,304.499634L284.980825,304.527749L287.077627,306.678961L293.121125,315.425518L293.344322,330.949630L299.451707,328.240734L302.097697,337.229583L295.689573,340.137678L299.122290,348.772693L299.135196,348.778410L300.633227,349.442229L290.781315,364.361459L290.991963,372.796074L287.744728,375.522519L279.853090,377.753092L279.066951,381.019668L273.736640,388.437651L274.179297,388.943281L274.672197,389.502055L281.844864,381.651333L283.716164,382.535458L291.534742,380.144301L299.165171,371.625838L304.784727,366.423784L313.010765,360.326839L322.899192,354.355805L323.469233,351.744840L335.809181,343.134210L341.119352,342.317251L347.228070,339.340345L346.076799,337.503422L343.260965,333.455479L340.915600,329.781755L335.695433,332.573573L334.066073,329.450835L328.941593,329.017210L322.323868,325.768952L322.079899,315.472530L318.315031,313.723022L313.231249,306.315380L309.693129,311.106076L306.976216,309.320231L310.849491,297.116410L303.644184,294.019541L299.750231,290.465300L301.864302,280.578106L301.574381,280.038755L301.498792,279.898139L296.014747,275.823499L294.578616,276.299888L289.479964,262.287565L290.034903,259.095779L294.558218,254.675376L298.453361,254.732777L302.959283,252.473970L305.128764,249.456854L299.159667,253.290031L295.455628,244.786262L293.022048,247.873541L290.649987,240.485787L292.133034,239.470144L290.031001,229.711345L300.333986,221.696799L305.444151,218.686588L306.849021,220.111737L311.117606,216.365738L308.137816,213.858746L299.499413,218.359643L297.028574,213.238530L299.486964,211.559698L294.081441,207.584305L297.791479,203.196122L312.743053,202.545178L311.386377,195.740785L318.650279,189.300051L314.869464,189.930456L308.445233,193.612375L299.469185,182.667181L298.908097,175.585205L288.147376,161.580246L288.100932,161.621504Z "/><path d="M415.987346,561.161119L403.647369,553.439030L399.102024,553.126778L393.388282,563.750951L390.908320,568.025812L388.591981,572.475743L383.325631,580.843957L378.404542,590.912067L377.012599,593.788454L376.087378,595.700739L376.070444,595.735739L372.259472,603.354568L371.152338,605.761415L368.239701,611.674006L367.367556,613.418558L365.935588,616.279453L365.481628,621.894668L355.871627,636.767346L355.803804,636.903142L352.396615,643.725181L350.422952,647.496544L338.331203,674.028382L336.708474,677.781681L335.745744,682.231763L334.482170,688.889615L331.488583,695.392384L330.012480,698.173271L331.021289,698.362183L323.742327,714.343107L305.298193,755.201736L315.403622,756.789730L329.085369,759.227819L342.414165,763.625121L342.890735,763.038423L346.317911,758.029962L356.970494,746.565581L368.100048,728.752014L375.286249,714.291560L380.744880,695.108682L378.893966,678.382482L377.544851,660.796825L379.800643,638.363160L389.190187,607.331938L397.578511,587.130400L407.082904,570.868388L414.609929,562.454193L415.987346,561.161119Z "/><path d="M944.841631,44.584728L924.541675,60.122628L917.947975,52.301190L897.838205,66.470569L904.154349,81.693021L905.461325,80.832799L909.351013,89.883317L905.162278,92.796146L906.375539,94.554927L910.195281,98.908933L919.951545,115.865510L922.760818,119.594010L923.263854,120.323483L923.307886,120.387332L938.286633,110.426470L937.482392,109.260087L946.006304,101.297252L953.500576,96.051752L979.688540,76.537368L983.123684,68.642723L992.594224,63.185540L999.403052,65.443915L999.408428,65.354482L996.114900,60.438169L984.262462,65.003090L978.206623,56.551226L955.713372,55.176821L956.169821,45.512717L952.096912,43.892750L947.488103,45.789449L944.920522,44.834878L944.841631,44.584728Z "/><path d="M859.929832,228.268616L859.019216,225.543718L861.402761,222.781041L868.159723,220.185750L873.700854,213.431090L858.860133,199.032697L858.794967,198.981409L858.080605,200.461194L852.655791,206.968116L843.318248,212.725323L841.512861,213.885997L849.978107,221.815429L857.723810,228.616893L858.768357,229.498797L859.929832,228.268616Z "/><path d="M989.351954,98.412882L987.799895,95.691501L986.282353,93.949835L990.642237,89.763681L991.626450,88.793219L987.626478,86.838258L979.832304,89.380779L978.093572,91.069990L976.910390,100.773568L989.347628,98.433060L989.351954,98.412882Z "/><path d="M999.403052,65.443915L992.594224,63.185540L983.123684,68.642723L979.688540,76.537368L953.500576,96.051752L946.006304,101.297252L937.482392,109.260087L938.286633,110.426470L923.307886,120.387332L923.263854,120.323483L922.575424,120.789955L919.426177,123.104697L908.054684,131.267675L907.944991,131.328773L908.031030,131.455768L916.343726,143.971731L918.596711,146.931739L920.531995,149.279152L920.539678,149.288472L921.613999,148.206160L934.929131,137.534799L945.720850,152.502442L950.088627,157.820620L950.104002,157.839344L953.395157,155.089450L988.267649,132.261073L992.325469,127.813022L992.142564,127.691052L986.079625,125.927336L987.752667,120.356334L991.420777,113.248944L989.316957,98.576079L989.347628,98.433060L976.910390,100.773568L978.093572,91.069990L979.832304,89.380779L987.626478,86.838258L991.626450,88.793219L991.698858,88.721824L993.431837,85.988132L996.152810,75.619729L999.213268,68.600991L999.403052,65.443915Z "/><path d="M992.325469,127.813022L988.267649,132.261073L953.395157,155.089450L950.104002,157.839344L950.245089,158.011136L954.007837,164.758506L957.454000,188.865785L958.119052,188.985954L963.354548,187.081676L975.532094,173.646467L977.552169,172.793960L986.383592,154.609091L985.896997,152.782919L994.715911,138.958051L997.925452,132.960518L992.408454,127.868359L992.325469,127.813022Z "/><path d="M907.064501,130.029138L896.733147,114.189243L895.431133,110.420692L890.118396,102.799139L890.088636,102.735457L887.505340,104.454070L864.243003,119.881281L849.974370,129.832181L845.081739,134.092508L837.697814,140.671750L822.623513,154.486643L812.763429,163.462415L801.949326,172.999963L797.414317,177.235586L804.503985,183.448064L812.021397,189.805380L820.936898,198.105942L829.254629,204.877922L829.273259,204.891117L833.112006,207.610016L834.175242,208.387130L838.822523,211.673031L841.434449,213.822285L841.496547,213.873383L841.512861,213.885997L843.318248,212.725323L852.655791,206.968116L858.080605,200.461194L858.794967,198.981409L858.804771,198.961100L871.112170,185.825174L872.914646,184.077438L884.235656,176.200260L886.386510,175.011428L889.686624,173.086452L901.454527,166.626401L910.521401,160.359186L918.133768,151.180634L920.539678,149.288472L920.531995,149.279152L918.596711,146.931739L916.343726,143.971731L908.031030,131.455768L907.944991,131.328773L907.064501,130.029138Z "/><path d="M945.720850,152.502442L934.929131,137.534799L921.613999,148.206160L920.539678,149.288472L918.133768,151.180634L910.521401,160.359186L901.454527,166.626401L889.686624,173.086452L886.386510,175.011428L887.930548,177.420752L901.247756,195.970133L903.311059,197.269016L909.421384,204.007732L910.692611,205.597638L911.710184,204.369050L913.109122,202.422087L914.711329,200.192299L916.742946,197.105740L917.662175,195.734436L919.101060,193.542444L927.388741,180.921518L948.709183,159.261430L950.088627,157.820620L945.720850,152.502442Z "/><path d="M909.421384,204.007732L903.311059,197.269016L901.247756,195.970133L887.930548,177.420752L886.386510,175.011428L884.235656,176.200260L872.914646,184.077438L871.112170,185.825174L858.804771,198.961100L858.794967,198.981409L858.860133,199.032697L873.700854,213.431090L868.159723,220.185750L861.402761,222.781041L859.019216,225.543718L859.929832,228.268616L858.768357,229.498797L858.995530,229.690601L865.116735,235.052383L866.786384,236.558926L873.807700,239.129011L875.716434,241.324154L881.715750,237.744900L882.206145,237.572840L897.863124,229.157787L900.358661,228.324370L900.358924,228.299918L902.717918,222.844797L904.624238,219.264608L909.366776,208.355604L910.692611,205.597638L909.421384,204.007732Z "/><path d="M950.104002,157.839344L950.088627,157.820620L948.709183,159.261430L927.388741,180.921518L919.101060,193.542444L917.662175,195.734436L919.306378,197.391597L919.330542,201.588130L920.561910,203.582770L924.505575,211.173530L924.878329,210.761963L936.594773,200.776069L939.681573,193.836962L957.326914,188.842821L957.454000,188.865785L954.007837,164.758506L950.245089,158.011136L950.104002,157.839344Z "/><path d="M905.043091,227.013057L910.990355,220.471382L917.697350,216.581333L924.492202,211.188297L924.505575,211.173530L920.561910,203.582770L919.330542,201.588130L919.306378,197.391597L917.662175,195.734436L916.742946,197.105740L914.711329,200.192299L913.109122,202.422087L911.710184,204.369050L910.692611,205.597638L909.366776,208.355604L904.624238,219.264608L902.717918,222.844797L900.358924,228.299918L900.358661,228.324370L900.377021,228.318238L901.014142,228.222868L904.078551,227.468229L904.936155,227.279040L905.043091,227.013057Z "/><path d="M841.496547,213.873383L841.434449,213.822285L838.408484,215.788680L831.609818,227.427096L827.501439,240.091496L826.379627,251.757060L822.724456,262.563557L822.707208,262.611059L822.508728,265.420714L822.125024,266.873513L822.131808,266.892787L823.147922,266.265417L839.359125,255.052004L850.186140,249.492821L874.107638,242.410083L875.716434,241.324154L873.807700,239.129011L866.786384,236.558926L865.116735,235.052383L858.995530,229.690601L858.768357,229.498797L857.723810,228.616893L849.978107,221.815429L841.512861,213.885997L841.496547,213.873383Z "/><path d="M829.254629,204.877922L820.936898,198.105942L812.021397,189.805380L804.503985,183.448064L797.414317,177.235586L790.787465,183.255487L783.083049,190.317480L782.781161,190.384010L759.466031,211.936566L756.487081,215.350430L760.072913,218.596820L768.511761,228.219689L761.606311,248.052441L762.491446,249.130815L761.023135,250.955447L762.158068,251.518820L764.335015,252.035301L768.092325,252.484547L775.104850,253.160910L775.134391,253.160373L778.181380,250.154238L787.876033,241.695678L791.648207,238.237578L794.937827,235.539518L797.498146,232.668804L797.711161,232.429971L806.574927,225.442324L818.451270,214.874593L829.256546,204.905392L829.273259,204.891117L829.254629,204.877922Z "/><path d="M797.559907,233.271967L798.511150,237.747398L819.995123,259.181054L822.669889,262.563862L822.707208,262.611059L822.724456,262.563557L826.379627,251.757060L827.501439,240.091496L831.609818,227.427096L838.408484,215.788680L841.434449,213.822285L838.822523,211.673031L834.175242,208.387130L833.112006,207.610016L829.273259,204.891117L829.256546,204.905392L818.451270,214.874593L806.574927,225.442324L797.711161,232.429971L797.498146,232.668804L797.559907,233.271967Z "/><path d="M797.498146,232.668804L794.937827,235.539518L791.648207,238.237578L787.876033,241.695678L778.181380,250.154238L775.134391,253.160373L778.319801,253.102638L785.321972,253.982803L785.973378,255.963862L786.456750,256.580472L786.492602,256.538459L795.526490,264.268418L798.189208,273.674836L791.846939,284.950461L786.946622,289.071863L788.852050,291.565648L791.377389,289.798318L791.850159,289.476961L800.063279,283.422414L802.672534,281.594077L805.446584,279.371833L808.509915,277.153870L811.148394,275.127118L822.098541,266.913325L822.131808,266.892787L822.125024,266.873513L822.508728,265.420714L822.707208,262.611059L822.669889,262.563862L819.995123,259.181054L798.511150,237.747398L797.559907,233.271967L797.498146,232.668804Z "/><path d="M786.456750,256.580472L785.973378,255.963862L785.321972,253.982803L778.319801,253.102638L775.134391,253.160373L775.104850,253.160910L768.092325,252.484547L764.335015,252.035301L762.158068,251.518820L761.023135,250.955447L760.999162,250.985238L753.228711,259.180776L750.896650,268.036918L753.538748,269.525663L757.942518,266.467367L763.827756,269.425335L777.809956,271.637138L784.978705,266.483665L780.682662,263.347338L786.456750,256.580472Z "/><path d="M904.936155,227.279040L904.078551,227.468229L901.014142,228.222868L900.377021,228.318238L900.358661,228.324370L897.863124,229.157787L882.206145,237.572840L881.715750,237.744900L875.716434,241.324154L874.107638,242.410083L850.186140,249.492821L839.359125,255.052004L823.147922,266.265417L822.131808,266.892787L822.098541,266.913325L811.148394,275.127118L808.509915,277.153870L805.446584,279.371833L802.672534,281.594077L802.677066,281.619633L819.177526,304.467677L829.260022,320.349450L835.901621,328.185458L836.175243,328.000715L875.686558,300.483235L881.573144,295.719906L894.556654,287.065261L906.176171,278.096583L895.652776,262.401599L888.216157,260.633721L886.698423,257.072684L887.125531,250.691870L901.031936,239.966339L904.881684,227.414528L904.936155,227.279040Z "/><path d="M709.810081,275.897678L717.909334,279.889814L733.671909,273.479748L736.870677,268.188200L748.611141,253.722667L753.902284,241.788924L754.291454,236.364987L749.854230,227.945996L749.157255,227.579926L748.637933,228.145193L737.449040,244.512041L715.130719,264.926540L713.133038,267.364960L709.745480,275.645148L709.803987,275.912995L709.810081,275.897678Z "/><path d="M748.526981,227.248897L741.642993,227.022576L734.574213,221.075897L738.385937,211.386887L740.353759,209.544790L743.585473,212.219330L750.099220,205.263710L750.484001,201.867466L745.991422,191.141697L738.130151,192.033837L721.662940,200.763424L718.239543,199.886550L716.214325,196.700220L693.704121,210.736576L686.608893,205.851216L686.509122,205.043204L684.968929,205.928422L681.202823,210.618431L696.111758,223.454842L665.355965,251.605675L659.273869,257.108879L673.673552,269.758566L689.026784,283.606091L694.249877,288.393288L696.913709,290.824568L706.575355,282.573818L707.658607,280.773561L708.388161,279.471942L709.803987,275.912995L709.745480,275.645148L713.133038,267.364960L715.130719,264.926540L737.449040,244.512041L748.637933,228.145193L749.157255,227.579926L748.526981,227.248897Z "/><path d="M683.152917,157.281496L674.429114,163.939326L667.225153,167.551447L625.424303,204.080788L623.318745,205.586910L623.283725,205.602364L642.979053,221.776085L643.422251,225.358669L638.980262,238.448135L639.024179,238.476883L639.756351,239.380019L648.311892,247.216729L649.854205,248.520460L657.783848,255.592858L659.273869,257.108879L665.355965,251.605675L696.111758,223.454842L681.202823,210.618431L684.968929,205.928422L686.509122,205.043204L687.088594,204.307172L699.325917,187.115059L697.396972,185.651271L695.819752,179.748061L715.742164,166.287898L713.447906,165.256659L687.844323,157.832090L688.204437,156.131497L683.202964,157.236238L683.152917,157.281496Z "/><path d="M639.024179,238.476883L638.980262,238.448135L643.422251,225.358669L642.979053,221.776085L623.283725,205.602364L623.022569,205.717608L612.794237,214.620778L630.005333,230.283978L625.836232,236.240860L609.643307,251.127624L609.620262,251.145635L614.396416,252.741602L617.807910,255.839345L624.368975,261.656521L624.380573,261.667351L624.421861,261.624413L627.262674,256.591923L629.575046,250.237026L637.768265,239.957721L639.024179,238.476883Z "/><path d="M657.783848,255.592858L649.854205,248.520460L648.311892,247.216729L639.756351,239.380019L639.024179,238.476883L637.768265,239.957721L629.575046,250.237026L627.262674,256.591923L624.421861,261.624413L624.380573,261.667351L622.369050,263.759242L622.372850,270.981360L621.141026,273.511262L611.333505,287.507814L608.771410,291.226698L608.221421,292.158034L607.061400,302.453412L606.408230,303.778126L603.003000,311.231677L603.004515,311.299616L603.098059,315.496231L603.554310,318.288764L603.994742,321.127217L607.437262,328.670626L607.236613,330.530797L607.270533,330.561324L608.875985,329.977827L656.489242,317.730676L672.966448,311.034333L696.913709,290.824568L694.249877,288.393288L689.026784,283.606091L673.673552,269.758566L659.273869,257.108879L657.783848,255.592858Z "/><path d="M607.437262,328.670626L603.994742,321.127217L603.554310,318.288764L603.098059,315.496231L603.004515,311.299616L602.957183,311.321473L596.330204,317.156584L582.907792,329.130157L567.801180,342.624599L566.957164,343.334500L569.044032,345.890548L571.530550,347.287661L580.043680,345.377297L594.332930,337.504856L597.154409,335.952788L599.500281,334.655847L605.321658,331.436726L606.964946,330.762219L607.236613,330.530797L607.437262,328.670626Z "/><path d="M607.023521,290.044092L599.993768,285.316069L579.407021,302.871187L569.262803,310.909270L559.736035,319.337731L566.761567,325.554684L555.507725,335.824634L555.352278,336.818789L558.254438,336.650719L561.582583,337.759407L565.301640,341.617154L566.957164,343.334500L567.801180,342.624599L582.907792,329.130157L596.330204,317.156584L602.957183,311.321473L603.004515,311.299616L603.003000,311.231677L606.408230,303.778126L607.061400,302.453412L608.221421,292.158034L608.771410,291.226698L607.023521,290.044092Z "/><path d="M624.368975,261.656521L617.807910,255.839345L614.396416,252.741602L609.620262,251.145635L608.906523,251.703448L599.308362,257.819718L570.348080,274.638103L559.631317,284.179426L558.322718,286.100199L554.746299,283.780954L554.512774,283.573139L552.346357,290.678138L549.787936,292.586880L549.021623,293.325398L548.948898,293.367577L548.113380,294.408698L538.918466,305.387754L538.578480,308.167898L542.026690,325.698060L537.417052,339.029969L532.359003,342.471657L531.306067,344.133882L531.170209,344.483469L534.088687,343.963226L538.677688,342.610668L549.914302,338.598788L553.415273,337.452809L555.352278,336.818789L555.507725,335.824634L566.761567,325.554684L559.736035,319.337731L569.262803,310.909270L579.407021,302.871187L599.993768,285.316069L607.023521,290.044092L608.771410,291.226698L611.333505,287.507814L621.141026,273.511262L622.372850,270.981360L622.369050,263.759242L624.380573,261.667351L624.368975,261.656521Z "/><path d="M610.419448,347.457610L603.681171,341.453604L601.533755,339.480793L599.286825,337.636151L597.154409,335.952788L594.332930,337.504856L580.043680,345.377297L571.530550,347.287661L569.044032,345.890548L566.957164,343.334500L565.301640,341.617154L561.582583,337.759407L558.254438,336.650719L555.352278,336.818789L553.415273,337.452809L549.914302,338.598788L538.677688,342.610668L534.088687,343.963226L531.170209,344.483469L530.765446,345.525000L531.230931,349.100345L531.570324,353.572652L531.224005,357.146274L531.104263,358.381972L535.134083,360.561166L547.771388,355.838529L549.899114,362.663576L546.651389,368.737411L537.166117,372.416123L534.770642,375.480383L536.030513,378.256021L550.344779,379.494391L554.527185,378.624941L563.124836,380.478772L565.913168,383.368551L565.914954,383.380180L566.075273,383.323086L568.602356,382.600601L587.327030,367.586353L608.273209,349.133797L610.427704,347.464697L610.419448,347.457610Z "/><path d="M747.998992,290.750616L747.990516,291.174595L741.654878,294.065018L745.606316,306.394442L724.790481,314.187964L724.707287,314.354528L724.630131,315.395563L740.163016,360.118618L744.854830,374.764330L748.388992,373.893515L760.279403,372.003034L781.139776,364.251309L787.900821,359.374326L818.832576,340.038871L833.260636,329.968620L835.901621,328.185458L829.260022,320.349450L819.177526,304.467677L802.677066,281.619633L802.672534,281.594077L800.063279,283.422414L791.850159,289.476961L791.377389,289.798318L788.852050,291.565648L788.326528,291.933436L779.353434,293.384490L786.000512,286.145201L786.877941,280.471426L778.801467,276.263731L772.645417,278.971567L761.531890,278.692060L758.550028,280.790307L756.535149,287.036799L748.354777,290.766462L747.998992,290.750616Z "/><path d="M618.994905,356.974067L618.940498,356.879631L619.193419,355.890995L614.993845,351.703894L613.068227,349.880998L610.427704,347.464697L608.273209,349.133797L587.327030,367.586353L568.602356,382.600601L566.075273,383.323086L565.914954,383.380180L566.687137,388.407728L559.757595,397.415097L564.528496,405.996901L561.223803,411.740859L566.231841,416.301918L566.261428,416.315355L566.313081,416.348364L570.006976,419.152277L569.982353,429.945421L570.962777,432.759092L571.962489,432.226929L591.871296,421.565634L615.071595,404.142859L625.026757,402.697511L625.017760,402.790405L625.109269,402.660217L625.503209,370.447945L620.336000,359.301871L618.994905,356.974067Z "/><path d="M746.778220,290.696248L744.802797,290.366132L735.566972,281.441153L729.436938,281.144001L727.437915,282.653704L717.503680,285.024068L707.394768,282.725212L706.575355,282.573818L696.913709,290.824568L672.966448,311.034333L656.489242,317.730676L608.875985,329.977827L607.270533,330.561324L607.236613,330.530797L606.964946,330.762219L605.321658,331.436726L599.500281,334.655847L597.154409,335.952788L599.286825,337.636151L601.533755,339.480793L603.681171,341.453604L610.419448,347.457610L610.427704,347.464697L613.068227,349.880998L614.993845,351.703894L619.193419,355.890995L618.940498,356.879631L618.994905,356.974067L619.326677,356.756794L630.002440,350.269063L652.776785,345.000019L670.565179,341.320770L672.448008,340.555715L672.500040,340.534574L685.134575,331.961984L693.768267,328.682898L724.711638,314.295804L724.707287,314.354528L724.790481,314.187964L745.606316,306.394442L741.654878,294.065018L747.990516,291.174595L747.998992,290.750616L746.778220,290.696248Z "/><path d="M724.707287,314.354528L724.711638,314.295804L693.768267,328.682898L685.134575,331.961984L672.500040,340.534574L672.448008,340.555715L672.451149,340.591040L686.049622,373.582774L662.875599,385.687774L671.809592,407.179128L672.133297,406.947205L681.960948,398.462105L688.828122,394.552976L707.918135,386.463977L719.957159,382.022487L738.909375,376.229394L744.854830,374.764330L740.163016,360.118618L724.630131,315.395563L724.707287,314.354528Z "/><path d="M672.448008,340.555715L670.565179,341.320770L652.776785,345.000019L630.002440,350.269063L619.326677,356.756794L618.994905,356.974067L620.336000,359.301871L625.503209,370.447945L625.109269,402.660217L625.017760,402.790405L624.647289,406.615097L631.035013,410.737013L638.135228,410.842243L641.479536,408.582691L657.848554,418.545829L658.050689,418.301740L659.354566,416.725460L660.614808,415.199037L664.494534,412.420351L671.809592,407.179128L662.875599,385.687774L686.049622,373.582774L672.451149,340.591040L672.448008,340.555715Z "/><path d="M270.519794,176.764051L253.409577,191.758390L252.415770,192.679429L243.465837,200.402659L243.414707,200.443160L245.785078,216.502159L243.163358,230.159412L249.169081,239.192046L263.492853,229.888431L270.755372,235.100224L276.121364,235.973809L276.369259,236.045030L276.321849,235.928883L279.545036,234.446809L280.855054,226.863065L277.935873,225.926434L284.234894,221.195062L277.339418,210.348479L269.325245,209.519773L269.900589,207.388941L279.772433,204.042706L280.991962,201.257541L278.889732,190.051549L292.870690,183.488986L279.162612,169.214947L270.519794,176.764051Z "/><path d="M243.214411,200.601810L170.290670,260.979087L181.247724,281.159773L190.617218,290.119249L193.016337,293.344722L206.002386,283.122045L209.766337,278.527352L240.840998,265.242068L239.632263,268.338453L239.486963,281.254961L242.642826,286.463864L244.375848,288.301472L246.189777,289.594924L250.935038,291.811610L254.130934,294.849915L256.253009,297.413716L257.378663,299.449342L258.915447,304.141938L259.636710,306.668050L260.234281,308.355307L264.203310,304.930973L266.254875,302.067913L278.901297,294.185594L279.448467,294.230185L279.414384,293.941087L282.653621,279.283389L263.783353,265.752881L254.088583,261.801454L262.490265,258.077318L261.455886,255.598773L266.762604,251.579560L263.999641,243.457587L268.758477,241.103947L269.991056,244.907141L273.953763,248.322306L280.068494,245.107994L276.369259,236.045030L276.121364,235.973809L270.755372,235.100224L263.492853,229.888431L249.169081,239.192046L243.163358,230.159412L245.785078,216.502159L243.414707,200.443160L243.214411,200.601810Z "/><path d="M244.375848,288.301472L242.642826,286.463864L239.486963,281.254961L239.632263,268.338453L240.840998,265.242068L209.766337,278.527352L206.002386,283.122045L193.016337,293.344722L193.347306,293.789701L197.607049,299.100923L201.454416,310.178366L207.434009,316.632710L209.042600,318.222085L222.366606,304.069959L227.653345,296.592917L238.296464,291.075667L244.375848,288.301472Z "/><path d="M256.253009,297.413716L254.130934,294.849915L250.935038,291.811610L246.189777,289.594924L244.375848,288.301472L238.296464,291.075667L227.653345,296.592917L222.366606,304.069959L209.042600,318.222085L209.261723,318.438593L210.316464,319.982948L210.607588,321.349840L213.726206,326.991860L214.259626,327.521807L226.204487,318.921196L226.986845,320.700186L252.640881,300.166161L256.253009,297.413716Z "/><path d="M251.091297,315.986846L252.265881,314.966005L256.072241,313.223124L260.837426,310.711181L260.234281,308.355307L259.636710,306.668050L258.915447,304.141938L257.378663,299.449342L256.253009,297.413716L252.640881,300.166161L226.986845,320.700186L226.204487,318.921196L214.259626,327.521807L215.287003,328.542510L216.115600,329.367659L216.708205,329.968620L218.115842,331.372945L221.495674,334.871327L230.628336,328.489437L235.167810,326.370437L248.685874,318.077472L251.091297,315.986846Z "/><path d="M260.837426,310.711181L262.577695,311.816673L265.662730,313.334381L267.692063,312.242596L283.623541,305.086075L284.980825,304.527749L284.953419,304.499634L280.799950,299.258708L280.073608,297.801490L279.653059,295.965567L279.448467,294.230185L278.901297,294.185594L266.254875,302.067913L264.203310,304.930973L260.234281,308.355307L260.837426,310.711181Z "/><path d="M299.122290,348.772693L295.689573,340.137678L302.097697,337.229583L299.451707,328.240734L293.344322,330.949630L293.121125,315.425518L287.077627,306.678961L284.980825,304.527749L283.623541,305.086075L267.692063,312.242596L265.662730,313.334381L262.577695,311.816673L260.837426,310.711181L256.072241,313.223124L252.265881,314.966005L251.091297,315.986846L251.153886,316.013038L255.159487,324.364050L265.665449,342.113493L269.221133,352.516310L265.944667,355.020309L267.795285,359.890302L271.329489,371.471965L285.428316,355.311476L299.098308,348.812224L299.135196,348.778410L299.122290,348.772693Z "/><path d="M251.091297,315.986846L248.685874,318.077472L235.167810,326.370437L230.628336,328.489437L221.495674,334.871327L222.351529,335.757239L247.453242,358.991276L253.134084,361.797232L253.679151,362.209959L255.577239,361.130674L256.881842,360.272588L260.698264,357.954429L265.944667,355.020309L269.221133,352.516310L265.665449,342.113493L255.159487,324.364050L251.153886,316.013038L251.091297,315.986846Z "/><path d="M299.135196,348.778410L299.098308,348.812224L285.428316,355.311476L271.329489,371.471965L267.795285,359.890302L265.944667,355.020309L260.698264,357.954429L256.881842,360.272588L255.577239,361.130674L253.679151,362.209959L254.400846,362.756437L259.213801,368.757800L265.833012,381.268752L272.974043,387.566578L273.736640,388.437651L279.066951,381.019668L279.853090,377.753092L287.744728,375.522519L290.991963,372.796074L290.781315,364.361459L300.633227,349.442229L299.135196,348.778410Z "/><path d="M442.146698,256.559933L434.758913,249.595166L432.606158,248.002979L429.613206,245.399953L426.203218,248.451824L424.826258,249.639840L414.758782,258.340280L403.421487,268.175663L403.284041,268.293406L403.362799,268.328925L404.573220,270.935896L404.791794,285.512195L401.921028,294.457407L397.347676,301.390497L392.021669,306.939237L390.916497,309.759615L390.593491,310.583941L391.559967,313.111867L421.928089,317.554084L423.764568,316.018930L424.067321,315.170151L424.121791,315.017442L424.535592,312.507229L425.432451,309.428540L428.523859,300.339651L428.556318,300.205942L428.874493,298.895397L435.259106,280.944136L437.684424,274.641812L443.605601,258.101456L443.328150,257.546911L442.146698,256.559933Z "/><path d="M392.021669,306.939237L397.347676,301.390497L401.921028,294.457407L404.791794,285.512195L404.573220,270.935896L403.362799,268.328925L403.284041,268.293406L401.271291,270.017629L387.939675,281.701479L372.939045,294.746582L372.658219,294.988805L373.894736,298.212656L379.114342,312.739112L380.060986,314.627884L381.167775,317.855996L381.199357,317.827456L384.419397,315.152751L387.121240,312.754397L390.643085,309.768026L390.916497,309.759615L392.021669,306.939237Z "/><path d="M372.611827,294.867848L372.240595,291.756410L372.108765,289.821634L371.878423,286.416150L368.946687,288.952902L353.967557,301.873773L334.066088,319.128853L339.864436,327.941813L340.915600,329.781755L343.260965,333.455479L346.076799,337.503422L347.228070,339.340345L348.444097,341.062188L349.312520,342.549376L349.448794,342.881090L350.567467,344.353978L350.581177,344.374654L350.594898,344.367042L353.363643,341.876231L366.592121,330.441546L366.670553,330.377176L370.943197,326.870623L375.236470,323.216193L381.238256,317.960529L381.174264,317.874924L381.167775,317.855996L380.060986,314.627884L379.114342,312.739112L373.894736,298.212656L372.658219,294.988805L372.611827,294.867848Z "/><path d="M397.282492,332.957638L392.860308,329.121428L391.759322,328.486793L382.580763,319.756451L381.238256,317.960529L375.236470,323.216193L370.943197,326.870623L366.670553,330.377176L368.811176,332.307103L377.259639,340.004113L379.594393,342.037169L382.510934,344.558995L384.152381,342.901336L390.407116,337.578583L391.329778,338.424352L396.080349,334.700658L397.360230,333.028455L397.282492,332.957638Z "/><path d="M379.594393,342.037169L377.259639,340.004113L368.811176,332.307103L366.670553,330.377176L366.592121,330.441546L353.363643,341.876231L350.594898,344.367042L350.581177,344.374654L353.119335,348.202852L353.621281,349.420914L359.684830,359.043590L361.814277,362.520317L361.896151,362.497171L367.292714,357.794596L379.377252,347.148999L382.510934,344.558995L379.594393,342.037169Z "/><path d="M406.055967,340.959402L403.047786,338.215866L402.265411,337.472654L398.382261,333.959522L397.360230,333.028455L396.080349,334.700658L391.329778,338.424352L390.407116,337.578583L384.152381,342.901336L382.510934,344.558995L379.377252,347.148999L367.292714,357.794596L361.896151,362.497171L361.814277,362.520317L361.832610,362.550240L365.156372,367.457540L368.120349,372.079228L369.330950,374.043441L371.056873,373.726824L382.052131,372.028815L386.589193,371.169338L392.747893,369.550368L399.552062,367.309264L401.673466,366.610575L402.314991,365.580002L408.721247,358.386307L408.564183,351.516082L407.465302,342.796901L406.322550,341.306975L406.055967,340.959402Z "/><path d="M473.905729,281.264287L456.232370,266.403466L453.627651,264.781828L443.625261,257.521100L443.328150,257.546911L443.605601,258.101456L437.684424,274.641812L435.259106,280.944136L428.874493,298.895397L428.556318,300.205942L428.644270,300.320561L436.628714,306.394025L447.224252,307.862826L460.985255,307.661176L461.039653,307.675788L462.258866,305.255504L464.673326,300.330930L467.024225,295.536378L472.444367,284.483683L474.014745,281.281761L473.905729,281.264287Z "/><path d="M423.764568,316.018930L421.928089,317.554084L391.559967,313.111867L390.593491,310.583941L390.916497,309.759615L390.643085,309.768026L387.121240,312.754397L384.419397,315.152751L381.199357,317.827456L381.167775,317.855996L381.174264,317.874924L381.238256,317.960529L382.580763,319.756451L391.759322,328.486793L392.860308,329.121428L397.282492,332.957638L397.360230,333.028455L398.382261,333.959522L402.265411,337.472654L403.047786,338.215866L406.055967,340.959402L406.322550,341.306975L406.414026,341.236223L426.511571,328.451086L430.756683,318.231210L429.436241,315.259563L424.067321,315.170151L423.764568,316.018930Z "/><path d="M427.180187,367.718134L419.579567,366.418555L413.345873,365.216594L401.942820,366.521859L401.673466,366.610575L399.552062,367.309264L398.137825,369.616732L391.444135,391.330066L422.067808,376.576924L426.994431,376.485627L427.118730,376.511669L428.848058,372.971964L431.102164,368.337836L427.180187,367.718134Z "/><path d="M399.552062,367.309264L392.747893,369.550368L386.589193,371.169338L382.052131,372.028815L371.056873,373.726824L369.330950,374.043441L361.223706,377.987474L359.302230,379.233275L351.422181,384.259126L351.774777,384.843131L360.388457,404.876680L362.146094,410.087974L372.977227,417.333651L372.134189,419.235212L375.893747,419.849700L387.791690,421.804841L399.809403,423.806319L403.656408,424.476824L403.701186,424.386097L408.455200,414.734471L410.660071,410.056499L413.934731,403.579804L415.454849,400.457428L417.803908,395.657037L420.081257,390.676785L423.858937,383.209099L426.013391,378.774257L427.118730,376.511669L426.994431,376.485627L422.067808,376.576924L391.444135,391.330066L398.137825,369.616732L399.552062,367.309264Z "/><path d="M372.977227,417.333651L362.146094,410.087974L360.388457,404.876680L351.774777,384.843131L351.422181,384.259126L342.528370,389.932099L333.083960,395.392008L317.816448,401.123876L308.847060,406.719877L309.089178,408.949081L306.826308,409.286993L307.263711,411.199437L307.139948,417.856950L302.229183,430.331089L305.053529,430.582789L305.254722,430.572711L305.673489,430.551737L310.961476,428.928963L311.392679,435.315704L360.413892,443.001974L360.469631,443.010837L362.955787,438.070165L367.463251,428.783933L372.134189,419.235212L372.977227,417.333651Z "/><path d="M399.809403,423.806319L387.791690,421.804841L375.893747,419.849700L372.134189,419.235212L367.463251,428.783933L362.955787,438.070165L360.469631,443.010837L364.146963,443.595737L366.635170,444.001421L368.711355,444.370179L379.338770,446.161705L379.362483,446.165703L380.828157,445.586754L385.879925,443.573446L390.549570,441.824276L391.826852,441.345846L396.267009,439.467070L396.547117,439.360691L397.837969,436.738215L398.292766,435.814284L399.127453,434.118631L401.251339,429.407988L403.656408,424.476824L399.809403,423.806319Z "/><path d="M490.244276,285.360287L488.907602,284.061511L486.958524,283.561097L483.161829,282.754253L474.014745,281.281761L472.444367,284.483683L467.024225,295.536378L464.673326,300.330930L462.258866,305.255504L461.039653,307.675788L467.987158,309.677090L471.766467,310.749631L477.098079,312.377580L480.400504,313.437921L481.927694,313.581340L485.335736,309.066380L486.319164,308.307918L493.398586,286.099861L493.242724,285.574556L490.244276,285.360287Z "/><path d="M532.510134,263.833458L524.108449,256.661814L518.786515,251.650533L498.347800,232.145096L498.163996,231.968291L482.627966,263.737447L478.598480,271.744514L476.591224,276.028815L474.014745,281.281761L483.161829,282.754253L486.958524,283.561097L488.907602,284.061511L490.244276,285.360287L493.242724,285.574556L498.195877,285.888030L502.149769,286.127988L504.399197,286.187270L520.793781,289.127635L520.806240,289.129794L521.491582,287.428405L527.429085,274.635031L529.587580,269.744417L532.519544,263.841776L532.510134,263.833458Z "/><path d="M554.434959,283.503890L547.746856,277.439748L546.698542,276.468506L533.517352,264.723706L532.519544,263.841776L529.587580,269.744417L527.429085,274.635031L521.491582,287.428405L520.806240,289.129794L522.757822,289.467921L535.580236,291.755215L546.544617,293.163274L548.823513,293.440738L548.948898,293.367577L549.021623,293.325398L549.787936,292.586880L552.346357,290.678138L554.512774,283.573139L554.434959,283.503890Z "/><path d="M460.855650,412.839174L463.059493,408.197294L422.145264,401.434296L418.638513,400.788211L415.454849,400.457428L413.934731,403.579804L410.660071,410.056499L408.455200,414.734471L403.701186,424.386097L403.656408,424.476824L401.251339,429.407988L399.127453,434.118631L398.292766,435.814284L397.837969,436.738215L396.547117,439.360691L397.927859,438.863569L411.431560,433.458678L418.987296,430.448593L432.749739,424.956391L436.889398,423.300007L438.291100,420.295042L444.663169,417.809823L450.767091,415.279271L453.221582,414.492639L454.786449,414.119269L458.705863,413.184162L460.655935,413.239830L460.775428,413.238215L460.855650,412.839174Z "/><path d="M531.306067,344.133882L526.207064,344.946417L519.405912,346.410544L512.857132,348.008680L492.108968,351.474576L475.549823,355.151426L475.078258,356.113403L462.109989,382.473991L484.407743,386.251924L515.901281,391.445036L517.748116,391.788805L517.837496,391.623482L529.747654,367.604196L521.070626,366.206271L530.609636,357.694509L531.224005,357.146274L531.570324,353.572652L531.230931,349.100345L530.765446,345.525000L531.170209,344.483469L531.306067,344.133882Z "/><path d="M571.046797,432.923191L570.539435,433.195280L546.400451,446.107032L509.922470,465.194125L499.437352,440.561649L499.408103,440.500999L497.752728,441.447393L485.264462,448.362025L471.305223,456.146167L463.504513,460.422727L462.272351,461.103874L464.134667,464.264798L467.361775,469.938183L467.825202,469.754860L469.739878,474.678571L470.706120,476.936807L471.513182,478.941423L477.981055,494.977029L479.626071,498.981758L480.584356,500.943805L487.986709,496.989582L508.052605,489.396746L517.549409,484.186719L527.501679,509.507162L528.467842,509.352309L549.197031,507.024208L565.437054,501.046690L578.160376,497.864780L590.875750,490.647237L610.532540,476.652316L610.756434,476.474699L601.578621,472.080863L598.863669,474.925108L585.201568,459.453435L582.927058,455.805151L576.735383,441.235167L571.905731,434.600794L571.046797,432.923191Z "/><path d="M527.501679,509.507162L517.549409,484.186719L508.052605,489.396746L487.986709,496.989582L480.584356,500.943805L476.963762,502.885548L465.730134,508.780580L467.913776,512.117073L472.535830,528.577643L473.750446,528.043570L493.716502,519.484706L502.609368,516.224579L521.195765,510.517929L527.501679,509.507162Z "/><path d="M475.549823,355.151426L475.456598,355.172130L468.100486,358.147539L465.556908,359.136251L460.466932,361.775467L455.600601,364.202219L445.258549,369.231857L440.171037,369.398857L435.788468,369.065882L435.552332,369.029151L431.102164,368.337836L428.848058,372.971964L427.118730,376.511669L426.013391,378.774257L423.858937,383.209099L420.081257,390.676785L417.803908,395.657037L415.454849,400.457428L418.638513,400.788211L422.145264,401.434296L463.059493,408.197294L460.855650,412.839174L460.775428,413.238215L465.800449,413.170434L471.311918,412.872644L480.787970,414.218826L500.775758,417.939530L504.644248,418.512105L504.796895,418.193972L506.713052,414.126539L508.382196,410.649553L513.002077,401.129069L516.269686,394.523388L517.748116,391.788805L515.901281,391.445036L484.407743,386.251924L462.109989,382.473991L475.078258,356.113403L475.549823,355.151426Z "/><path d="M531.224005,357.146274L530.609636,357.694509L521.070626,366.206271L529.747654,367.604196L517.837496,391.623482L517.748116,391.788805L516.269686,394.523388L513.002077,401.129069L508.382196,410.649553L506.713052,414.126539L504.796895,418.193972L515.117136,419.725250L513.831688,422.217941L528.194570,424.559970L531.712041,422.597423L546.231103,425.153513L552.537886,424.458207L561.540058,419.616922L566.261428,416.315355L566.231841,416.301918L561.223803,411.740859L564.528496,405.996901L559.757595,397.415097L566.687137,388.407728L565.914954,383.380180L565.913168,383.368551L563.124836,380.478772L554.527185,378.624941L550.344779,379.494391L536.030513,378.256021L534.770642,375.480383L537.166117,372.416123L546.651389,368.737411L549.899114,362.663576L547.771388,355.838529L535.134083,360.561166L531.104263,358.381972L531.224005,357.146274Z "/><path d="M566.261428,416.315355L561.540058,419.616922L552.537886,424.458207L546.231103,425.153513L531.712041,422.597423L528.194570,424.559970L513.831688,422.217941L515.117136,419.725250L504.796895,418.193972L504.644248,418.512105L503.685486,420.510304L502.800135,422.915489L494.664350,439.528564L499.402308,440.488986L499.408103,440.500999L499.437352,440.561649L509.922470,465.194125L546.400451,446.107032L570.539435,433.195280L571.046797,432.923191L571.021857,432.874482L570.962777,432.759092L569.982353,429.945421L570.006976,419.152277L566.313081,416.348364L566.261428,416.315355Z "/><path d="M447.223030,434.687461L452.136307,424.534973L453.300555,422.272271L454.316859,417.397141L454.786449,414.119269L453.221582,414.492639L450.767091,415.279271L444.663169,417.809823L438.291100,420.295042L436.889398,423.300007L433.639785,429.494723L431.255849,434.464906L428.968143,439.083184L422.083372,453.318691L422.109041,453.323365L422.132981,453.327719L423.663830,453.611889L428.016315,454.139012L436.748087,455.560680L436.798410,455.569171L439.148756,450.776087L441.174270,446.184052L442.885089,441.371996L444.099544,438.501910L447.223030,434.687461Z "/><path d="M460.775428,413.238215L460.655935,413.239830L458.705863,413.184162L454.786449,414.119269L454.316859,417.397141L453.300555,422.272271L452.136307,424.534973L447.223030,434.687461L444.099544,438.501910L447.516433,440.234089L453.895738,445.854364L462.125460,459.452810L461.422256,459.755757L462.272351,461.103874L463.504513,460.422727L471.305223,456.146167L485.264462,448.362025L497.752728,441.447393L499.408103,440.500999L499.402308,440.488986L494.664350,439.528564L502.800135,422.915489L503.685486,420.510304L504.644248,418.512105L500.775758,417.939530L480.787970,414.218826L471.311918,412.872644L465.800449,413.170434L460.775428,413.238215Z "/><path d="M438.368010,455.833897L444.616663,456.887906L445.764403,457.083344L458.860241,459.305787L461.422256,459.755757L462.125460,459.452810L453.895738,445.854364L447.516433,440.234089L444.099544,438.501910L442.885089,441.371996L441.174270,446.184052L439.148756,450.776087L436.798410,455.569171L438.368010,455.833897Z "/><path d="M385.879925,443.573446L380.828157,445.586754L379.362483,446.165703L379.338770,446.161705L379.012804,446.288969L347.492090,461.972466L344.230973,461.652890L333.645796,468.334549L332.225202,469.457251L334.774801,469.867685L340.517261,470.853022L358.674112,473.808572L366.268605,475.117655L373.882445,476.380997L377.992124,477.173709L380.418870,472.222670L392.137512,448.320041L390.549570,441.824276L385.879925,443.573446Z "/><path d="M332.225202,469.457251L330.145678,470.569094L320.322288,476.225584L304.424886,486.565698L294.452583,493.062483L288.852747,495.373271L286.916366,497.217718L286.007378,500.681935L287.842575,500.922087L290.162618,506.223267L290.178159,507.169209L291.591901,507.400768L295.437355,508.041890L299.403452,508.692006L312.997266,510.977776L313.012600,510.985323L313.430067,509.682870L315.368778,509.435727L317.128491,505.757226L322.276565,495.350751L323.378428,493.090022L327.756846,484.107521L330.037717,479.428746L333.698775,472.055923L334.774801,469.867685L332.225202,469.457251Z "/><path d="M339.338918,509.458873L338.638661,505.015520L337.214666,495.354997L327.252077,493.687962L323.378428,493.090022L322.276565,495.350751L317.128491,505.757226L315.368778,509.435727L313.430067,509.682870L313.012600,510.985323L312.965247,511.129835L311.578457,515.323762L326.660543,514.132180L329.650214,513.728202L331.172858,513.521964L335.327048,512.957530L339.748636,512.332740L339.338918,509.458873Z "/><path d="M373.882445,476.380997L366.268605,475.117655L358.674112,473.808572L340.517261,470.853022L334.774801,469.867685L333.698775,472.055923L330.037717,479.428746L327.756846,484.107521L323.378428,493.090022L327.252077,493.687962L337.214666,495.354997L338.638661,505.015520L339.338918,509.458873L339.748636,512.332740L340.496618,515.502756L353.646021,517.675440L355.677254,518.008012L357.957572,518.408897L357.967347,518.389298L359.324343,515.668426L360.608593,513.091669L364.492004,504.785865L364.520671,504.727082L371.122364,491.191559L377.992124,477.173709L373.882445,476.380997Z "/><path d="M364.520671,504.727082L364.492004,504.785865L360.608593,513.091669L359.324343,515.668426L357.967347,518.389298L374.390918,521.143774L378.423279,521.311323L380.927136,516.327236L382.889575,512.379251L389.234648,499.315937L391.587435,494.521347L391.539664,494.513261L389.783419,494.216014L385.831168,493.547146L383.816868,493.206283L371.122364,491.191559L364.520671,504.727082Z "/><path d="M399.489905,495.859054L395.775329,495.230220L393.867374,494.907255L392.911128,494.745395L391.587435,494.521347L389.234648,499.315937L382.889575,512.379251L380.927136,516.327236L378.423279,521.311323L379.789619,521.368113L389.594814,521.735903L391.387037,518.061775L395.056924,509.889985L397.103164,505.358732L399.205616,500.907562L399.221057,500.874440L401.407825,496.183765L399.489905,495.859054Z "/><path d="M422.109041,453.323365L422.083372,453.318691L428.968143,439.083184L431.255849,434.464906L433.639785,429.494723L436.889398,423.300007L432.749739,424.956391L418.987296,430.448593L411.431560,433.458678L397.927859,438.863569L396.547117,439.360691L396.267009,439.467070L391.826852,441.345846L390.549570,441.824276L392.137512,448.320041L380.418870,472.222670L377.992124,477.173709L371.122364,491.191559L383.816868,493.206283L385.831168,493.547146L389.783419,494.216014L391.539664,494.513261L391.587435,494.521347L392.911128,494.745395L393.867374,494.907255L395.775329,495.230220L399.489905,495.859054L401.407825,496.183765L402.008145,494.864139L408.940919,480.158638L410.403583,477.163326L419.689819,458.244394L422.109041,453.323365Z "/><path d="M435.211637,486.797773L442.361745,472.081032L449.200482,468.229326L460.723272,461.917702L462.272351,461.103874L461.422256,459.755757L458.860241,459.305787L445.764403,457.083344L444.616663,456.887906L438.368010,455.833897L436.798410,455.569171L436.748087,455.560680L428.016315,454.139012L423.663830,453.611889L422.132981,453.327719L422.109041,453.323365L419.689819,458.244394L410.403583,477.163326L408.940919,480.158638L402.008145,494.864139L401.407825,496.183765L399.221057,500.874440L399.305197,500.886572L403.607023,501.512923L419.304988,504.120449L425.261204,507.360278L427.404414,503.189306L433.129780,491.439826L433.067979,491.387386L435.211637,486.797773Z "/><path d="M434.499728,548.413665L441.820817,544.560798L453.803781,537.350900L471.685696,528.951457L472.535830,528.577643L467.913776,512.117073L465.730134,508.780580L476.963762,502.885548L480.584356,500.943805L479.626071,498.981758L477.981055,494.977029L471.513182,478.941423L470.706120,476.936807L466.745804,479.097523L448.716791,487.445732L438.675246,496.153363L433.097984,491.323140L433.067979,491.387386L433.129780,491.439826L427.404414,503.189306L425.261204,507.360278L423.985049,509.641377L423.970052,509.638353L419.726090,517.126886L414.489461,526.393126L411.674180,531.375342L426.650614,534.451675L429.797453,551.404404L434.499728,548.413665Z "/><path d="M419.304988,504.120449L403.607023,501.512923L399.305197,500.886572L399.221057,500.874440L399.205616,500.907562L397.103164,505.358732L395.056924,509.889985L391.387037,518.061775L389.594814,521.735903L393.314806,522.325943L406.542184,524.434117L413.150031,526.071146L414.489461,526.393126L419.726090,517.126886L423.970052,509.638353L423.985049,509.641377L425.261204,507.360278L419.304988,504.120449Z "/><path d="M414.489461,526.393126L413.150031,526.071146L406.542184,524.434117L393.314806,522.325943L389.594814,521.735903L388.000311,525.070284L383.011959,535.667563L380.999718,540.033941L379.538349,543.185415L376.493325,550.113766L371.086110,561.744250L371.822145,561.770320L381.424495,563.715244L388.093591,567.419769L390.430299,567.996295L390.908320,568.025812L393.388282,563.750951L399.102024,553.126778L403.647369,553.439030L415.987346,561.161119L418.890491,558.435833L419.493291,558.033689L421.811982,556.484355L422.114783,556.291077L429.797453,551.404404L426.650614,534.451675L411.674180,531.375342L414.489461,526.393126Z "/><path d="M460.985255,307.661176L447.224252,307.862826L436.628714,306.394025L428.644270,300.320561L428.556318,300.205942L428.523859,300.339651L425.432451,309.428540L424.535592,312.507229L424.121791,315.017442L424.067321,315.170151L429.436241,315.259563L430.756683,318.231210L426.511571,328.451086L406.414026,341.236223L406.322550,341.306975L407.465302,342.796901L408.564183,351.516082L408.721247,358.386307L402.314991,365.580002L401.673466,366.610575L401.942820,366.521859L413.345873,365.216594L419.579567,366.418555L427.180187,367.718134L431.102164,368.337836L435.552332,369.029151L435.788468,369.065882L440.171037,369.398857L445.258549,369.231857L455.600601,364.202219L459.590094,356.421521L473.601023,327.603577L469.727244,327.000113L468.474074,322.740704L474.860467,317.573032L480.400504,313.437921L477.098079,312.377580L471.766467,310.749631L467.987158,309.677090L461.039653,307.675788L460.985255,307.661176Z "/><path d="M348.240626,591.217859L339.529809,609.044985L339.636690,609.062493L343.425527,609.684792L347.234178,610.321503L349.062255,610.607052L358.765457,612.140796L360.896430,612.454461L365.034683,613.076858L367.367556,613.418558L368.239701,611.674006L371.152338,605.761415L372.259472,603.354568L376.070444,595.735739L376.087378,595.700739L348.240626,591.217859Z "/><path d="M390.430299,567.996295L388.093591,567.419769L381.424495,563.715244L371.822145,561.770320L371.005406,561.741393L365.090637,563.011088L363.073500,563.484947L357.968844,563.389762L357.801728,563.364140L352.182731,574.829192L349.088511,581.137759L352.875542,581.734336L348.240626,591.217859L376.087378,595.700739L377.012599,593.788454L378.404542,590.912067L383.325631,580.843957L388.591981,572.475743L390.908320,568.025812L390.430299,567.996295Z "/><path d="M357.707133,563.349638L354.006024,562.782256L349.449040,562.070851L348.639869,561.932491L348.248236,561.871844L345.446101,567.604461L347.315627,567.899577L344.537473,573.582828L352.182731,574.829192L357.801728,563.364140L357.707133,563.349638Z "/><path d="M344.537473,573.582828L347.315627,567.899577L345.446101,567.604461L348.248236,561.871844L348.168940,561.859305L346.283007,561.575035L342.432914,560.952740L338.909156,560.354262L337.106703,560.038391L337.077553,560.095469L331.531338,571.399128L330.690249,573.038619L326.091324,574.096393L324.597057,577.235539L324.131106,578.145648L324.290583,579.623670L324.649494,579.782720L326.747401,580.192766L327.233177,580.242859L329.116321,580.476608L330.111490,580.092564L330.798767,578.680807L331.719785,578.359301L349.088511,581.137759L352.182731,574.829192L344.537473,573.582828Z "/><path d="M327.233177,580.242859L326.036159,582.668674L321.999213,590.849955L320.828681,593.260380L315.727186,603.739264L315.051604,605.022756L317.986101,605.499040L325.180930,606.704564L330.737928,607.600661L331.897120,607.790177L333.402490,608.032517L334.602544,608.235311L337.717928,608.753733L339.529809,609.044985L348.240626,591.217859L352.875542,581.734336L349.088511,581.137759L331.719785,578.359301L330.798767,578.680807L330.111490,580.092564L329.116321,580.476608L327.233177,580.242859Z "/><path d="M312.997266,510.977776L299.403452,508.692006L295.437355,508.041890L291.591901,507.400768L290.178159,507.169209L290.180229,507.295366L293.287379,512.384206L292.088248,515.086943L301.206545,530.047614L301.668172,530.957899L302.107081,530.975339L317.145540,531.324788L321.321253,531.385999L323.262117,531.427904L323.263175,531.415262L326.050028,525.329142L331.372314,513.970020L329.650214,513.728202L326.660543,514.132180L311.578457,515.323762L312.965247,511.129835L313.012600,510.985323L312.997266,510.977776Z "/><path d="M355.677254,518.008012L353.646021,517.675440L340.496618,515.502756L339.748636,512.332740L335.327048,512.957530L331.172858,513.521964L329.650214,513.728202L331.372314,513.970020L326.050028,525.329142L323.263175,531.415262L323.262117,531.427904L326.219165,531.491776L351.014820,532.072092L351.176353,532.127499L352.018749,530.377251L353.462015,527.385946L354.138681,526.059058L357.936699,518.450750L357.957572,518.408897L355.677254,518.008012Z "/><path d="M351.176353,532.127499L351.014820,532.072092L326.219165,531.491776L323.262117,531.427904L321.321253,531.385999L317.145540,531.324788L302.107081,530.975339L301.668172,530.957899L301.680747,530.982694L303.546067,533.661323L304.562511,535.658159L306.918157,539.277695L307.714853,540.865915L308.618213,541.058796L320.536426,542.964346L328.210923,544.093606L343.348951,546.624906L343.814412,547.140746L344.259352,546.234541L346.546865,541.634916L348.307064,538.093137L351.109720,532.265941L351.176353,532.127499Z "/><path d="M289.119665,540.907750L291.675106,547.503209L294.011241,559.660668L290.289898,568.344869L288.586081,571.389263L290.059231,571.624973L293.968413,572.303871L300.606147,573.420027L305.260878,574.133690L324.597057,577.235539L326.091324,574.096393L330.690249,573.038619L331.531338,571.399128L337.077553,560.095469L337.106703,560.038391L337.815493,558.585073L341.164998,551.301292L341.902329,551.011132L343.131786,548.520038L343.714298,547.343510L343.781617,547.207546L343.814412,547.140746L343.348951,546.624906L328.210923,544.093606L320.536426,542.964346L308.618213,541.058796L307.714853,540.865915L307.552146,540.831175L304.116434,540.203819L300.769359,541.268878L289.886502,540.591052L289.119665,540.907750Z "/><path d="M327.233177,580.242859L326.747401,580.192766L324.649494,579.782720L324.290583,579.623670L324.131106,578.145648L324.597057,577.235539L305.260878,574.133690L300.606147,573.420027L293.968413,572.303871L290.059231,571.624973L288.586081,571.389263L285.112049,576.008586L281.834146,580.642313L278.160880,584.289650L275.225763,587.325144L277.777134,587.879346L283.217888,588.784487L285.720281,589.165381L282.148843,596.410001L280.649268,599.454186L281.401255,599.567561L283.475271,599.982982L311.122702,604.448640L315.051604,605.022756L315.727186,603.739264L320.828681,593.260380L321.999213,590.849955L326.036159,582.668674L327.233177,580.242859Z "/><path d="M282.148843,596.410001L285.720281,589.165381L283.217888,588.784487L277.777134,587.879346L275.225763,587.325144L275.146166,587.407464L271.401614,589.589966L268.009594,591.460706L263.508302,594.377166L261.108820,595.974236L265.215807,599.997285L277.575001,602.017408L280.104727,600.506925L280.649268,599.454186L282.148843,596.410001Z "/><path d="M280.104727,600.506925L277.575001,602.017408L265.215807,599.997285L261.108820,595.974236L258.052708,598.008418L248.335058,606.583637L244.591743,608.262091L246.788521,609.785662L247.951470,610.450387L254.191288,616.140743L255.667704,615.265923L262.122285,616.146037L266.490422,616.773280L286.807515,620.125707L295.987412,621.488850L302.294114,622.420732L306.125353,623.034108L307.888732,619.386634L310.554471,614.004140L312.124402,610.866471L314.325052,606.468510L315.051604,605.022756L311.122702,604.448640L283.475271,599.982982L281.401255,599.567561L280.649268,599.454186L280.104727,600.506925Z "/><path d="M297.291153,642.403178L299.122254,638.541897L305.077628,625.214885L306.125353,623.034108L302.294114,622.420732L295.987412,621.488850L286.807515,620.125707L266.490422,616.773280L262.122285,616.146037L258.274454,623.942210L247.375005,646.425613L250.398567,646.933903L251.733431,647.140838L255.076553,647.771826L259.742537,648.382624L263.574852,649.069783L274.442262,650.873200L275.867430,651.167881L279.579239,643.555809L295.353563,646.222707L297.291153,642.403178Z "/><path d="M330.737928,607.600661L325.180930,606.704564L317.986101,605.499040L315.051604,605.022756L314.325052,606.468510L312.124402,610.866471L310.554471,614.004140L307.888732,619.386634L306.125353,623.034108L311.625783,623.919248L315.446445,624.536968L319.389870,625.313000L322.716707,626.522174L324.582736,622.705055L326.415810,619.002701L329.124544,613.459762L330.585449,610.428594L331.897120,607.790177L330.737928,607.600661Z "/><path d="M337.717928,608.753733L334.602544,608.235311L333.402490,608.032517L331.897120,607.790177L330.585449,610.428594L329.124544,613.459762L326.415810,619.002701L324.582736,622.705055L322.716707,626.522174L324.155258,627.045054L331.192002,629.603566L333.169568,630.335547L336.662138,631.648556L336.695993,631.660984L337.188227,630.587528L339.649052,625.726250L342.862645,619.197784L346.577388,611.651181L347.234178,610.321503L343.425527,609.684792L339.636690,609.062493L339.529809,609.044985L337.717928,608.753733Z "/><path d="M365.034683,613.076858L360.896430,612.454461L358.765457,612.140796L349.062255,610.607052L347.234178,610.321503L346.577388,611.651181L342.862645,619.197784L339.649052,625.726250L337.188227,630.587528L336.695993,631.660984L338.395591,632.284861L341.682560,633.504386L343.657490,634.254035L347.219932,635.458171L351.944160,636.249717L355.803804,636.903142L355.871627,636.767346L365.481628,621.894668L365.935588,616.279453L367.367556,613.418558L365.034683,613.076858Z "/><path d="M336.662138,631.648556L333.169568,630.335547L330.573335,635.626415L325.630589,645.680771L321.194512,654.644593L317.361453,662.381216L321.224082,662.970702L324.890024,663.608790L328.878789,664.228493L331.367909,659.089711L335.688713,650.405419L339.365961,642.935342L343.657490,634.254035L341.682560,633.504386L338.395591,632.284861L336.695993,631.660984L336.662138,631.648556Z "/><path d="M325.630589,645.680771L330.573335,635.626415L333.169568,630.335547L331.192002,629.603566L324.155258,627.045054L322.716707,626.522174L319.389870,625.313000L315.446445,624.536968L311.625783,623.919248L306.125353,623.034108L305.077628,625.214885L299.122254,638.541897L297.291153,642.403178L295.353563,646.222707L323.073887,650.846850L325.630589,645.680771Z "/><path d="M313.714409,661.710178L309.231183,662.312553L307.367799,666.078782L306.180697,668.544725L313.727498,669.804948L317.529255,670.439107L321.355183,671.054255L325.243232,671.679469L325.869844,670.325456L328.878789,664.228493L324.890024,663.608790L321.224082,662.970702L317.361453,662.381216L313.714409,661.710178Z "/><path d="M306.160109,668.541287L294.737719,666.649581L288.762870,665.641313L286.095167,665.224239L284.151776,669.106434L282.177783,673.016053L280.320169,676.851405L275.284400,687.154799L274.369146,689.007171L275.822901,689.214954L300.693273,693.204003L302.074738,693.403271L305.986040,693.948996L306.024414,693.954351L308.039620,689.827231L309.929508,685.956907L313.758139,678.164913L315.654267,674.279673L317.529255,670.439107L313.727498,669.804948L306.180697,668.544725L306.160109,668.541287Z "/><path d="M321.355183,671.054255L317.529255,670.439107L315.654267,674.279673L313.758139,678.164913L309.929508,685.956907L308.039620,689.827231L306.024414,693.954351L306.377211,694.003579L311.919139,694.833021L318.258717,695.994551L325.893536,697.402006L330.012480,698.173271L331.488583,695.392384L334.482170,688.889615L335.745744,682.231763L336.708474,677.781681L338.331203,674.028382L333.820665,673.150306L331.021389,672.650808L325.243232,671.679469L321.355183,671.054255Z "/><path d="M200.560842,637.321469L198.228490,636.713544L182.825944,652.581069L177.163025,662.165985L166.156536,656.057087L166.078162,656.012112L128.710065,699.065783L126.506907,700.858815L119.494864,705.614051L117.945258,706.717318L117.944552,707.266914L121.659977,728.477239L123.666634,733.609237L117.207540,745.465070L100.938237,760.576040L98.853086,762.394868L104.697956,762.802375L116.881780,765.203286L151.925868,748.531336L159.321227,755.217429L184.865561,764.057174L184.869439,764.060927L189.152108,761.052582L195.283246,756.852607L201.538738,753.422072L207.115118,751.204269L203.785155,748.977916L201.970924,745.741402L204.861862,733.005602L221.873990,700.476475L224.104470,695.878673L234.267372,672.869439L233.373071,673.059180L216.812678,676.252170L224.458239,660.477416L220.774176,652.363741L200.560842,637.321469Z "/><path d="M179.081634,809.134330L187.661697,766.763220L186.500008,765.638944L184.865561,764.057174L159.321227,755.217429L151.925868,748.531336L116.881780,765.203286L104.697956,762.802375L98.853086,762.394868L83.269777,768.789538L68.179198,779.536238L64.513654,783.513358L54.790607,797.281864L49.950577,801.782035L30.647450,811.865237L14.638383,815.308905L15.079549,815.342848L27.938568,816.319840L38.242797,814.609324L41.203699,819.032345L49.466992,825.365830L56.178842,825.393925L68.761747,815.539494L75.467477,812.436867L103.244293,816.965969L110.477599,817.749442L120.925013,815.939031L115.779097,831.371740L123.485431,844.205127L146.395556,831.093918L160.468993,823.764492L178.412576,809.546534L179.081634,809.134330Z "/><path d="M81.267660,685.089016L77.140820,696.415768L68.728048,705.752786L63.449143,710.076725L66.307184,712.045301L63.635252,717.430127L57.152054,720.528181L54.612592,724.658997L58.029128,727.487859L62.895967,731.510678L67.263667,727.298903L86.101621,709.457284L86.717345,709.132678L86.746095,708.490282L87.100324,701.438385L86.928258,700.449432L86.372486,697.255098L85.285923,694.096771L85.149064,692.966391L84.867600,693.128225L82.839796,687.663332L83.374481,682.626931L81.702454,683.771975L81.267660,685.089016Z "/><path d="M117.945955,706.175983L113.926037,699.836146L105.617428,698.316111L103.184540,694.570854L96.734576,698.964547L87.089762,700.366955L86.928258,700.449432L87.100324,701.438385L86.746095,708.490282L86.717345,709.132678L86.544749,712.989704L86.742361,728.133744L93.128052,726.275665L99.559383,722.325147L113.153389,710.130064L117.945258,706.717318L117.945955,706.175983Z "/><path d="M154.000680,646.554850L156.845799,645.339802L156.510098,644.841523L155.648553,643.551026L153.238990,640.073842L151.183538,636.739453L148.824529,633.129290L148.779521,633.071749L122.018954,651.012890L104.842498,645.984148L101.066945,646.283298L100.921190,646.393831L100.278957,651.864228L96.728126,659.695825L84.349150,674.152800L81.717680,683.725855L81.702454,683.771975L83.374481,682.626931L82.839796,687.663332L84.867600,693.128225L85.149064,692.966391L90.852021,689.687477L101.691017,682.564516L101.935596,681.575372L137.008192,657.872697L148.461119,650.232763L154.000680,646.554850Z "/><path d="M211.447808,612.351864L209.519041,612.318262L204.093423,612.445356L179.128572,629.360838L180.533651,631.673633L184.147612,629.209156L161.869787,641.866172L156.922226,645.307163L156.845799,645.339802L154.000680,646.554850L148.461119,650.232763L149.505165,652.239404L156.335878,660.945839L162.398967,653.900844L166.156536,656.057087L177.163025,662.165985L182.825944,652.581069L198.228490,636.713544L200.560842,637.321469L201.338881,635.922879L205.336932,632.976434L212.105382,615.158282L210.670368,614.846459L211.447808,612.351864Z "/><path d="M186.752040,605.683349L172.236213,601.296642L165.744079,599.412988L161.217601,592.222903L161.163285,592.090895L160.637563,592.145319L151.464479,591.755076L134.826066,596.342725L106.820064,606.150849L106.823475,606.187577L108.175339,608.304806L121.190110,609.452296L123.515722,611.067527L123.535988,614.556845L118.320066,620.213472L120.600606,622.555376L131.828085,621.688463L131.838265,626.169631L126.072115,631.053190L122.493752,637.758145L111.323928,636.448322L109.468327,636.953538L101.278981,646.122498L101.066945,646.283298L104.842498,645.984148L122.018954,651.012890L148.779521,633.071749L148.824529,633.129290L159.572694,625.810963L171.390343,617.802225L183.567431,609.596851L187.644240,606.848229L186.752040,605.683349Z "/><path d="M179.508958,554.185932L176.285062,553.664220L145.780917,548.759257L128.222518,545.990658L126.369751,545.654986L124.844204,545.468182L124.249336,544.906374L124.005893,545.315154L119.619796,553.058401L112.314033,556.905197L114.258486,563.239796L113.238463,567.906702L103.504651,578.896346L101.111721,587.956631L106.798280,605.916298L106.820064,606.150849L134.826066,596.342725L151.464479,591.755076L160.637563,592.145319L161.163285,592.090895L167.482949,579.031388L171.383769,570.971791L179.508958,554.185932Z "/><path d="M179.508958,554.185932L171.383769,570.971791L180.956868,572.472777L190.536585,573.996805L197.836163,575.169778L200.198491,575.547742L203.693799,568.202075L208.331445,558.724241L206.026814,558.350319L198.666242,557.161615L193.877473,556.385208L193.851600,556.380877L191.424981,555.974568L183.749920,554.899993L181.889219,554.571157L179.531896,554.189644L179.508958,554.185932Z "/><path d="M161.163285,592.090895L161.217601,592.222903L165.744079,599.412988L172.236213,601.296642L186.752040,605.683349L187.644240,606.848229L188.399293,606.187516L200.081314,598.462278L200.170998,598.396884L193.836139,588.889078L193.792493,588.894548L193.811452,588.872419L196.311296,583.571362L187.947072,582.262558L181.894841,581.275735L177.112526,580.524883L177.098381,580.531222L167.482949,579.031388L161.163285,592.090895Z "/><path d="M197.836163,575.169778L190.536585,573.996805L180.956868,572.472777L171.383769,570.971791L167.482949,579.031388L177.098381,580.531222L177.112526,580.524883L181.894841,581.275735L187.947072,582.262558L196.311296,583.571362L200.198491,575.547742L197.836163,575.169778Z "/><path d="M208.147217,598.489601L212.403203,595.073627L222.232593,588.579070L223.045697,585.585612L218.445514,585.811293L214.874986,585.942663L212.516170,586.061374L209.205425,586.703415L206.906964,599.418690L208.147217,598.489601Z "/><path d="M227.722479,561.879781L220.297162,560.652512L217.055695,560.186104L213.178561,559.509172L208.331445,558.724241L203.693799,568.202075L200.198491,575.547742L196.311296,583.571362L193.811452,588.872419L193.792493,588.894548L193.836139,588.889078L200.170998,598.396884L201.701287,597.281079L204.290590,595.568904L206.906964,599.418690L209.205425,586.703415L212.516170,586.061374L214.874986,585.942663L218.445514,585.811293L218.448147,585.811164L219.442756,582.197601L224.453254,571.535032L229.897148,562.201228L227.722479,561.879781Z "/><path d="M200.170998,598.396884L200.081314,598.462278L188.399293,606.187516L187.644240,606.848229L183.567431,609.596851L171.390343,617.802225L159.572694,625.810963L148.824529,633.129290L151.183538,636.739453L153.238990,640.073842L155.648553,643.551026L156.510098,644.841523L156.845799,645.339802L156.922226,645.307163L161.869787,641.866172L184.147612,629.209156L180.533651,631.673633L179.128572,629.360838L204.093423,612.445356L209.519041,612.318262L211.447808,612.351864L214.146197,608.610025L216.339719,607.369043L214.033377,604.781259L213.554067,603.614976L209.693794,599.985993L208.147217,598.489601L206.906964,599.418690L204.290590,595.568904L201.701287,597.281079L200.170998,598.396884Z "/><path d="M277.989074,546.036164L277.267055,550.308746L273.727557,557.646301L265.202925,557.947322L262.951977,562.512789L253.311467,555.057559L253.286417,555.085908L240.101484,556.430381L238.407833,560.958285L235.254131,562.993149L229.964650,562.211205L229.897148,562.201228L224.453254,571.535032L219.442756,582.197601L218.448147,585.811164L223.045697,585.585612L222.232593,588.579070L212.403203,595.073627L208.147217,598.489601L209.693794,599.985993L213.554067,603.614976L214.033377,604.781259L216.339719,607.369043L219.106674,605.803683L226.292983,604.868226L234.003467,607.986329L241.621128,609.594128L244.591743,608.262091L248.335058,606.583637L258.052708,598.008418L261.108820,595.974236L263.508302,594.377166L268.009594,591.460706L271.401614,589.589966L275.146166,587.407464L275.225763,587.325144L278.160880,584.289650L281.834146,580.642313L285.112049,576.008586L288.586081,571.389263L290.289898,568.344869L294.011241,559.660668L291.675106,547.503209L290.159274,543.590882L278.051018,545.960966L277.953726,546.039948L277.989074,546.036164Z "/><path d="M275.199051,546.334810L263.394489,547.976831L247.089318,550.160229L249.249512,551.860417L253.311467,555.057559L262.951977,562.512789L265.202925,557.947322L273.727557,557.646301L277.267055,550.308746L277.989074,546.036164L275.199051,546.334810Z "/><path d="M240.911850,545.025656L235.495845,545.571428L234.613321,545.723374L225.365639,546.746366L220.329787,546.556829L218.527298,546.256508L214.895098,545.892872L212.296991,546.127369L206.026814,558.350319L208.331445,558.724241L213.178561,559.509172L217.055695,560.186104L220.297162,560.652512L227.722479,561.879781L229.964650,562.211205L235.254131,562.993149L238.407833,560.958285L240.101484,556.430381L253.286417,555.085908L253.311467,555.057559L249.249512,551.860417L247.089318,550.160229L244.561788,548.085027L240.911850,545.025656Z "/><path d="M258.463584,508.595802L245.880724,509.427407L240.304254,506.339272L230.727925,501.403524L225.937574,498.864386L225.623078,502.658776L225.502620,504.078753L225.129482,508.373149L224.945546,510.604688L224.540406,512.964271L224.538330,512.977800L230.971069,512.113630L233.106796,514.021794L239.069184,516.866865L244.503379,518.155306L253.762570,517.037587L258.092301,516.515040L259.011566,508.526266L258.463584,508.595802Z "/><path d="M239.069184,516.866865L233.106796,514.021794L230.971069,512.113630L224.538330,512.977800L224.434231,514.155917L224.259941,515.233704L222.814953,524.170523L222.572331,526.896199L228.296097,532.802350L235.677888,540.180081L240.281826,544.442360L241.768409,534.683293L243.747011,522.147707L244.503379,518.155306L239.069184,516.866865Z "/><path d="M240.281826,544.442360L235.677888,540.180081L228.296097,532.802350L222.572331,526.896199L221.975970,529.574441L221.210432,533.072325L220.480755,536.674559L219.069558,543.670263L218.527298,546.256508L220.329787,546.556829L225.365639,546.746366L234.613321,545.723374L235.495845,545.571428L240.911850,545.025656L240.281826,544.442360Z "/><path d="M218.354351,494.997926L206.082489,488.433740L204.601981,487.654775L202.648931,486.727217L202.414126,487.052370L202.198857,487.350468L201.201747,488.833447L192.723789,498.880981L191.335200,500.417831L192.967182,501.562971L198.105153,505.175441L204.554638,509.684264L206.157853,511.464514L208.515039,513.548774L210.011890,514.870598L224.540406,512.964271L224.945546,510.604688L225.129482,508.373149L225.502620,504.078753L225.623078,502.658776L225.937574,498.864386L218.354351,494.997926Z "/><path d="M224.540406,512.964271L210.011890,514.870598L208.515039,513.548774L198.621250,515.949696L188.264587,518.467881L188.235715,518.471806L187.378037,524.466632L185.899930,533.354671L185.080135,538.767375L190.211135,540.632738L195.647046,542.254650L195.324901,546.374307L194.444183,551.216123L193.851600,556.380877L193.877473,556.385208L198.666242,557.161615L206.026814,558.350319L212.296991,546.127369L214.895098,545.892872L218.527298,546.256508L219.069558,543.670263L220.480755,536.674559L221.210432,533.072325L221.975970,529.574441L222.572331,526.896199L222.814953,524.170523L224.259941,515.233704L224.434231,514.155917L224.538330,512.977800L224.540406,512.964271Z "/><path d="M194.444183,551.216123L195.324901,546.374307L195.647046,542.254650L190.211135,540.632738L185.080135,538.767375L184.214604,544.482941L179.531896,554.189644L181.889219,554.571157L183.749920,554.899993L191.424981,555.974568L193.851600,556.380877L194.444183,551.216123Z "/><path d="M289.119665,540.907750L288.741953,540.169738L287.394489,535.034796L281.205813,527.865823L276.858197,522.751072L275.400519,506.413151L273.471337,506.680532L269.063898,507.291447L267.906171,507.451932L260.200987,508.375334L259.011566,508.526266L258.092301,516.515040L253.762570,517.037587L244.503379,518.155306L243.747011,522.147707L241.768409,534.683293L240.281826,544.442360L240.911850,545.025656L244.561788,548.085027L247.089318,550.160229L263.394489,547.976831L275.199051,546.334810L277.953726,546.039948L278.051018,545.960966L290.159274,543.590882L289.119665,540.907750Z "/><path d="M180.479645,519.526538L152.855489,523.295821L147.428546,518.829879L140.134304,517.395409L140.960069,511.293727L141.810351,506.309201L138.977888,506.782195L136.392214,507.108453L135.087662,516.471752L130.595052,525.831424L133.022475,526.223683L126.139171,540.417402L128.647763,540.899045L126.369751,545.654986L128.222518,545.990658L145.780917,548.759257L176.285062,553.664220L179.508958,554.185932L179.531896,554.189644L184.214604,544.482941L185.080135,538.767375L185.899930,533.354671L187.378037,524.466632L188.235715,518.471806L180.479645,519.526538Z "/><path d="M190.525030,499.857597L183.407751,500.991657L175.713871,502.075512L155.835554,504.678264L144.523232,506.056017L141.810351,506.309201L140.960069,511.293727L140.134304,517.395409L147.428546,518.829879L152.855489,523.295821L180.479645,519.526538L188.235715,518.471806L188.264587,518.467881L198.621250,515.949696L208.515039,513.548774L206.157853,511.464514L204.554638,509.684264L198.105153,505.175441L192.967182,501.562971L191.335200,500.417831L190.525030,499.857597Z "/><path d="M187.976908,498.095300L175.851762,490.778429L171.074564,488.908659L149.887974,478.490655L149.182038,472.842197L211.103509,442.712479L209.851455,428.431068L209.828621,428.441943L126.325658,469.008662L115.469464,476.318893L102.480816,483.476702L52.658070,507.454297L54.363466,510.362097L55.547927,517.648930L59.876307,524.745901L65.558713,525.091875L71.474161,527.666425L74.814067,533.557472L80.415694,535.829779L81.036238,537.709362L86.983294,537.085950L93.525434,534.639075L98.346243,536.902045L98.982523,542.868179L101.910055,542.503471L110.558022,537.294793L116.736206,537.459998L122.372636,540.087699L124.390694,544.769647L124.249336,544.906374L124.844204,545.468182L126.369751,545.654986L128.647763,540.899045L126.139171,540.417402L133.022475,526.223683L130.595052,525.831424L135.087662,516.471752L136.392214,507.108453L138.977888,506.782195L141.810351,506.309201L144.523232,506.056017L155.835554,504.678264L175.713871,502.075512L183.407751,500.991657L190.525030,499.857597L187.976908,498.095300Z "/><path d="M271.141773,398.770477L260.479219,403.844679L240.024249,413.635242L233.045306,417.142893L232.952637,417.187212L232.441469,424.623853L231.310893,437.029247L230.816371,447.511074L231.343905,447.041959L236.495054,442.461442L254.459466,436.103011L254.321484,434.206985L260.602832,435.523448L268.569640,426.689624L271.726465,428.219842L283.350967,416.586558L268.691620,409.489445L279.937883,404.319227L279.088724,402.503617L271.165419,398.758364L271.141773,398.770477Z "/><path d="M376.493325,550.113766L374.673313,549.996400L368.612568,549.642517L367.514790,549.592205L365.764741,549.479477L364.620749,549.405823L360.625874,549.169647L356.612429,548.946489L346.327307,547.748248L343.714298,547.343510L343.131786,548.520038L341.902329,551.011132L341.164998,551.301292L337.815493,558.585073L337.106703,560.038391L338.909156,560.354262L342.432914,560.952740L346.283007,561.575035L348.168940,561.859305L348.248236,561.871844L348.639869,561.932491L349.449040,562.070851L354.006024,562.782256L357.707133,563.349638L357.801728,563.364140L357.968844,563.389762L363.073500,563.484947L365.090637,563.011088L371.005406,561.741393L371.086110,561.744250L376.493325,550.113766Z "/><path d="M374.390918,521.143774L357.967347,518.389298L357.957572,518.408897L357.936699,518.450750L354.138681,526.059058L353.462015,527.385946L352.018749,530.377251L351.176353,532.127499L351.109720,532.265941L348.307064,538.093137L346.546865,541.634916L344.259352,546.234541L343.814412,547.140746L343.781617,547.207546L343.714298,547.343510L346.327307,547.748248L356.612429,548.946489L360.625874,549.169647L364.620749,549.405823L365.764741,549.479477L368.636894,542.289613L371.123357,536.098160L376.441901,525.372896L378.423279,521.311323L374.390918,521.143774Z "/><path d="M378.423279,521.311323L376.441901,525.372896L371.123357,536.098160L368.636894,542.289613L365.764741,549.479477L367.514790,549.592205L368.612568,549.642517L374.673313,549.996400L376.493325,550.113766L379.538349,543.185415L380.999718,540.033941L383.011959,535.667563L388.000311,525.070284L389.594814,521.735903L379.789619,521.368113L378.423279,521.311323Z "/><path d="M379.338770,446.161705L368.711355,444.370179L366.635170,444.001421L364.146963,443.595737L360.469631,443.010837L360.413892,443.001974L311.392679,435.315704L310.961476,428.928963L305.673489,430.551737L305.254722,430.572711L304.794965,431.926745L304.318474,439.097833L309.502821,440.212109L308.829483,445.542004L309.654395,451.923900L292.531253,486.941498L288.852747,495.373271L294.452583,493.062483L304.424886,486.565698L320.322288,476.225584L330.145678,470.569094L332.225202,469.457251L333.645796,468.334549L344.230973,461.652890L347.492090,461.972466L379.012804,446.288969L379.338770,446.161705Z "/><path d="M292.672497,444.022320L266.956943,468.030515L257.772289,473.550884L253.992264,481.741196L257.746428,490.155026L263.908985,495.764439L274.185086,503.464407L275.400519,506.413151L276.858197,522.751072L281.205813,527.865823L287.394489,535.034796L288.741953,540.169738L289.119665,540.907750L289.886502,540.591052L300.769359,541.268878L304.116434,540.203819L307.552146,540.831175L307.714853,540.865915L306.918157,539.277695L304.562511,535.658159L303.546067,533.661323L301.680747,530.982694L301.668172,530.957899L301.206545,530.047614L292.088248,515.086943L293.287379,512.384206L290.180229,507.295366L290.178159,507.169209L290.162618,506.223267L287.842575,500.922087L286.007378,500.681935L286.916366,497.217718L288.852747,495.373271L292.531253,486.941498L309.654395,451.923900L308.829483,445.542004L309.502821,440.212109L304.318474,439.097833L304.794965,431.926745L305.254722,430.572711L305.053529,430.582789L302.229183,430.331089L292.672497,444.022320Z "/><path d="M224.180584,421.382685L215.779415,425.519767L211.673412,427.563417L209.851455,428.431068L211.103509,442.712479L149.182038,472.842197L149.887974,478.490655L171.074564,488.908659L175.851762,490.778429L187.976908,498.095300L190.525030,499.857597L191.335200,500.417831L192.723789,498.880981L201.201747,488.833447L202.198857,487.350468L202.414126,487.052370L202.278471,486.836466L196.533722,483.383980L203.382161,471.183396L206.050491,468.466492L218.896488,461.595315L221.253730,459.646437L230.934273,448.025664L231.343905,447.041959L230.816371,447.511074L231.310893,437.029247L232.441469,424.623853L232.952637,417.187212L224.180584,421.382685Z "/><path d="M306.826308,409.286993L306.297316,408.760552L283.254666,397.921270L276.470276,393.088475L275.835462,393.568699L274.162389,394.836425L273.312814,397.689616L271.397133,398.639652L271.165419,398.758364L279.088724,402.503617L279.937883,404.319227L268.691620,409.489445L283.350967,416.586558L271.726465,428.219842L268.569640,426.689624L260.602832,435.523448L254.321484,434.206985L254.459466,436.103011L236.495054,442.461442L231.343905,447.041959L230.934273,448.025664L221.253730,459.646437L218.896488,461.595315L206.050491,468.466492L203.382161,471.183396L196.533722,483.383980L202.278471,486.836466L202.414126,487.052370L202.648931,486.727217L204.601981,487.654775L206.082489,488.433740L218.354351,494.997926L225.937574,498.864386L230.727925,501.403524L240.304254,506.339272L245.880724,509.427407L258.463584,508.595802L259.011566,508.526266L260.200987,508.375334L267.906171,507.451932L269.063898,507.291447L273.471337,506.680532L275.400519,506.413151L274.185086,503.464407L263.908985,495.764439L257.746428,490.155026L253.992264,481.741196L257.772289,473.550884L266.956943,468.030515L292.672497,444.022320L302.229183,430.331089L307.139948,417.856950L307.263711,411.199437L306.826308,409.286993Z "/><path d="M922.760818,119.594010L919.951545,115.865510L910.195281,98.908933L906.375539,94.554927L905.162278,92.796146L901.669258,95.178444L898.521838,97.272750L890.105014,102.724560L890.088636,102.735457L890.118396,102.799139L895.431133,110.420692L896.733147,114.189243L907.064501,130.029138L907.944991,131.328773L908.054684,131.267675L919.426177,123.104697L922.575424,120.789955L923.263854,120.323483L922.760818,119.594010Z "/><path d="M330.012480,698.173271L325.893536,697.402006L318.258717,695.994551L311.919139,694.833021L306.377211,694.003579L306.024414,693.954351L305.986040,693.948996L302.074738,693.403271L300.693273,693.204003L275.822901,689.214954L274.369146,689.007171L270.991565,695.791861L270.325637,696.968129L269.889504,697.900710L268.427431,700.805362L267.458760,702.695679L247.551506,744.366268L245.002514,749.512315L255.688403,751.571824L256.870947,749.872916L279.002050,751.120279L297.932142,754.044542L305.298193,755.201736L323.742327,714.343107L331.021289,698.362183L330.012480,698.173271Z "/><path d="M247.551506,744.366268L245.743727,744.316234L227.624838,747.140791L216.197686,749.181063L207.115118,751.204269L201.538738,753.422072L195.283246,756.852607L189.152108,761.052582L184.869439,764.060927L186.500008,765.638944L187.661697,766.763220L179.081634,809.134330L180.651857,808.166930L194.848757,801.041203L208.165357,797.754651L222.210134,796.631058L262.759585,795.370142L294.798183,792.701643L313.887369,788.038878L335.174181,772.534550L339.798303,766.845558L342.414165,763.625121L329.085369,759.227819L315.403622,756.789730L297.932142,754.044542L279.002050,751.120279L256.870947,749.872916L255.688403,751.571824L245.002514,749.512315L247.551506,744.366268Z "/><path d="M469.739878,474.678571L467.825202,469.754860L467.361775,469.938183L464.134667,464.264798L462.272351,461.103874L460.723272,461.917702L449.200482,468.229326L442.361745,472.081032L435.211637,486.797773L433.097984,491.323140L438.675246,496.153363L448.716791,487.445732L466.745804,479.097523L470.706120,476.936807L469.739878,474.678571Z "/><path d="M162.398967,653.900844L156.335878,660.945839L149.505165,652.239404L148.461119,650.232763L137.008192,657.872697L101.935596,681.575372L101.691017,682.564516L90.852021,689.687477L85.149064,692.966391L85.285923,694.096771L86.372486,697.255098L86.928258,700.449432L87.089762,700.366955L96.734576,698.964547L103.184540,694.570854L105.617428,698.316111L113.926037,699.836146L117.945955,706.175983L117.945258,706.717318L119.494864,705.614051L126.506907,700.858815L128.710065,699.065783L166.078162,656.012112L162.398967,653.900844Z "/><path d="M239.687420,671.704867L238.661729,671.882605L234.267372,672.869439L224.104470,695.878673L227.158476,696.608906L229.023515,697.054875L252.567976,700.158306L254.529477,700.482799L266.556165,702.548326L267.458760,702.695679L268.427431,700.805362L269.889504,697.900710L270.325637,696.968129L270.991565,695.791861L274.369146,689.007171L275.284400,687.154799L280.320169,676.851405L282.177783,673.016053L282.207927,672.956349L282.140763,672.945396L266.443506,670.379082L268.799100,665.568774L264.218798,666.498765L249.312713,669.656810L239.751671,671.579901L239.687420,671.704867Z "/><path d="M98.853086,762.394868L100.938237,760.576040L117.207540,745.465070L123.666634,733.609237L121.659977,728.477239L117.944552,707.266914L117.945258,706.717318L113.153389,710.130064L99.559383,722.325147L93.128052,726.275665L86.742361,728.133744L86.544749,712.989704L86.717345,709.132678L86.101621,709.457284L67.263667,727.298903L62.895967,731.510678L58.029128,727.487859L56.197826,729.257904L44.330344,740.621126L42.739239,745.386103L34.005395,754.628651L35.038042,756.235686L19.509676,766.549098L14.491928,776.994108L8.772011,777.671321L5.801018,782.355693L9.096330,786.774894L4.940714,788.853452L10.051863,794.852045L1.395977,798.984371L3.320509,804.536930L1.524239,809.175101L14.308684,815.283540L14.638383,815.308905L30.647450,811.865237L49.950577,801.782035L54.790607,797.281864L64.513654,783.513358L68.179198,779.536238L83.269777,768.789538L98.853086,762.394868Z "/><path d="M224.104470,695.878673L221.873990,700.476475L204.861862,733.005602L201.970924,745.741402L203.785155,748.977916L207.115118,751.204269L216.197686,749.181063L227.624838,747.140791L245.743727,744.316234L247.551506,744.366268L267.458760,702.695679L266.556165,702.548326L254.529477,700.482799L252.567976,700.158306L229.023515,697.054875L224.104470,695.878673Z "/><path d="M355.803804,636.903142L351.944160,636.249717L347.219932,635.458171L343.657490,634.254035L339.365961,642.935342L335.688713,650.405419L331.367909,659.089711L328.878789,664.228493L325.869844,670.325456L325.243232,671.679469L331.021389,672.650808L333.820665,673.150306L338.331203,674.028382L350.422952,647.496544L352.396615,643.725181L355.803804,636.903142Z "/><path d="M286.095167,665.224239L286.149251,665.116202L291.595988,653.835374L292.592182,651.880998L295.334116,646.261041L295.353563,646.222707L279.579239,643.555809L275.867430,651.167881L273.981109,654.988031L266.443506,670.379082L282.140763,672.945396L282.207927,672.956349L284.151776,669.106434L286.095167,665.224239Z "/><path d="M273.981109,654.988031L275.867430,651.167881L274.442262,650.873200L263.574852,649.069783L259.742537,648.382624L255.076553,647.771826L251.733431,647.140838L251.054826,648.511883L248.693822,653.225919L248.076083,654.768859L240.457687,670.206739L239.751671,671.579901L249.312713,669.656810L264.218798,666.498765L268.799100,665.568774L273.981109,654.988031Z "/><path d="M295.353563,646.222707L295.334116,646.261041L292.592182,651.880998L291.595988,653.835374L286.149251,665.116202L286.095167,665.224239L288.762870,665.641313L294.737719,666.649581L306.160109,668.541287L306.180697,668.544725L307.367799,666.078782L309.231183,662.312553L313.714409,661.710178L317.361453,662.381216L321.194512,654.644593L323.073887,650.846850L295.353563,646.222707Z "/></g></svg>