<?xml version="1.0" encoding="utf-8"?><!DOCTYPE svg  PUBLIC '-//W3C//DTD SVG 1.1//EN'  'http://www.w3.org/Graphics/SVG/1.1/DTD/svg11.dtd'><svg enable_background="new 0 0 1000 845" height="845px" pretty_print="False" style="stroke-linejoin: round; stroke:#000; fill: none;" version="1.1" viewBox="0 0 1000 845" width="1000px" xmlns="http://www.w3.org/2000/svg" xmlns:xlink="http://www.w3.org/1999/xlink"><defs><style type="text/css"><![CDATA[path { fill-rule: evenodd; }]]></style></defs><metadata><views><view h="845.122975304" padding="0" w="1000"><proj flip="auto" id="robinson" lon0="-75.1398100001"/><bbox h="4.51" w="5.35" x="-1028.08" y="-674.12"/></view></views></metadata><g class="" id="world"><path d="M180.962268,808.291231L186.734395,804.986110L203.815665,799.280226L216.444544,797.970701L228.575374,795.881715L251.354322,794.260428L280.856290,793.668037L305.749366,792.140301L316.129681,788.866620L332.084823,775.523019L357.570319,742.417217L364.371323,732.349388L377.345365,708.163715L379.475000,699.094835L378.461464,672.731958L377.363241,658.710562L377.608416,649.394665L380.566239,632.757987L386.510888,613.661785 "/><path d="M386.510888,613.661785L392.900414,596.747753L399.219390,582.357941L406.871301,570.242650 "/><path d="M406.871301,570.242650L413.953316,559.467203L426.645393,551.152446L437.535749,545.017812 "/><path d="M437.535749,545.017812L453.696435,536.049755L469.222451,529.199430L504.459123,514.347495L520.975209,509.801844L548.944068,506.314839L565.166729,500.337261L577.863202,497.161746L591.335682,489.534493L614.770505,472.288654L630.821000,455.417835L637.772215,444.991026L641.352850,436.867837L657.487365,417.901735 "/><path d="M657.487365,417.901735L660.235488,414.571946L671.760914,406.325515L681.569442,397.861616L688.429291,393.940963L707.789222,385.757630L719.518197,381.432737L738.461063,375.645618L747.935998,373.312151L759.799211,371.414285L779.272436,364.663007 "/><path d="M779.272436,364.663007L787.397475,358.814162L808.405212,344.783865L818.293190,339.495543L875.089256,299.962052L883.304707,293.337623L892.554251,287.646390L905.561744,277.601608L895.866163,262.302175L889.818351,261.586987L886.983494,259.565816L885.741707,250.579630L900.505497,241.282931L899.886497,239.106509L904.533741,223.934403L916.194845,216.815105L923.267359,211.405853L924.777025,208.701282L932.316295,204.162659L937.698131,198.536153L939.020916,192.847638L956.349724,188.713464L963.745626,185.853785L965.859962,181.626508L973.496550,174.011419L975.973960,172.612761L985.031535,156.233648L987.238383,147.158893L993.327689,140.011258L997.220572,132.553130L996.922764,130.657566L986.425631,125.685682L986.135326,120.434263 "/><path d="M986.135326,120.434263L991.871729,107.508279L988.661179,95.888033L984.822757,92.687923L990.073658,88.462613L993.666427,76.284275L997.522407,72.525294L998.907177,68.114017L997.063136,59.944091L989.654362,62.273884L984.948333,65.411381L981.615965,64.417318L978.239422,56.340731L972.456172,55.036082L960.954486,57.738579L957.263056,55.129271L953.664821,55.874784L952.538315,53.700379L956.058351,46.307576L954.528567,44.443887L944.245609,43.915845L942.083558,38.387017L929.362346,36.616582L934.705853,25.776885L937.169289,23.695979L936.032147,18.882023L921.802292,31.398546L888.949010,0.776364 "/><path d="M888.949010,0.776364L888.148406,0.000000 M888.148406,0.000000L868.359015,17.546559L851.433047,29.069110L763.680961,87.872319L743.187339,102.319476L682.482123,157.166010 "/><path d="M682.482123,157.166010L677.101715,162.045438L666.851173,167.173628L637.795756,192.101616L612.448438,214.234811L630.851458,230.991775L614.571356,245.356013L601.935196,255.741196L568.861780,275.455884L564.918165,278.441245L557.921480,286.371327L554.335731,283.168158 "/><path d="M554.335731,283.168158L525.894569,257.669044L503.388119,236.028468L448.928131,188.216126L424.435754,165.402056L382.381252,202.142072L379.898293,200.308019 "/><path d="M379.898293,200.308019L312.502159,139.731574L279.531648,168.541167 "/><path d="M279.531648,168.541167L242.687579,200.681045L172.303478,259.099395L170.436396,260.498662L177.954171,275.611371L197.715587,298.593607L203.597039,313.087163L208.721003,317.317243L211.710653,323.475903L228.223209,342.295225L245.833866,356.480895L247.365456,358.347506L257.645250,365.254124L266.964990,381.743877L273.792370,387.873440 "/><path d="M273.792370,387.873440L277.313239,391.451700L277.836164,391.980666 "/><path d="M277.836164,391.980666L273.249552,397.021469L126.514540,468.304271L117.979557,474.312004L102.611909,482.841434L64.818954,500.368393L52.989891,507.124317L54.508816,515.157006L58.244386,518.301675L60.215401,524.155251L67.425690,524.995939L70.382443,526.552777L74.810805,532.624563L81.263449,536.952771L90.640576,534.368290L98.526130,535.987478L98.156187,538.478564L102.108685,541.748161L110.256098,536.485693L119.694089,537.544404L124.781046,540.938541L120.294710,551.712981 "/><path d="M120.294710,551.712981L112.075911,557.287271L114.660825,564.449996L109.946250,571.301540L103.556838,578.371337L103.310068,583.167729L101.118770,587.247868L102.867868,590.144506L107.017967,604.970971 "/><path d="M107.017967,604.970971L108.373823,607.494072L112.257192,607.556371L123.726032,613.724087L118.524476,619.362418L128.592248,620.452721L132.215445,624.377863L121.621928,638.396856L110.121245,636.091443L105.021913,641.076153L99.765628,652.541458L87.961800,669.304416L85.349684,671.547891L81.414941,687.377574L78.152480,693.267282L78.292956,696.913378L72.102904,702.865694L63.743282,709.067509L66.581431,711.342594L65.178379,713.555373L53.817643,722.843075L58.276453,726.552043L42.979869,744.474482L34.286573,753.638917L27.792879,763.115503L19.816011,765.547067L15.610275,774.805981L9.118816,776.645344L6.126287,780.854119L10.813092,785.312398L6.452685,787.027146 "/><path d="M6.452685,787.027146L5.144865,787.868938L10.539228,792.514440L9.124499,794.603391L0.970564,797.440658L0.592331,799.560840L2.612578,813.342557L28.217989,815.275813L38.523732,813.560827L41.460812,817.988640L50.627421,825.035920L54.855233,826.376802L71.666929,812.750111L77.856321,811.471681L89.591224,813.124287L100.838660,815.525267L110.677589,816.710177L121.114226,814.901633L115.974938,830.305949L123.684495,843.122975 M123.684495,843.122975L145.802431,829.245696L167.565831,817.333816L180.962268,808.291231 "/><path d="M265.154664,595.688727L287.289749,599.800272L367.234175,612.571519L386.510888,613.661785 "/><path d="M180.962268,808.291231L180.247977,802.865872L183.963869,789.583708L187.794687,768.789197L185.838892,764.736542L177.604923,760.278715L173.279953,759.499385L159.812542,754.231191L152.316317,745.596636L149.212912,734.406551L152.142022,716.703170L153.482506,712.558061L160.568556,707.166430L170.942489,707.197594L179.645375,704.891391L182.954919,701.961928L198.846917,680.241598L198.146927,676.097239L180.054638,674.227632L177.781539,671.859487L176.300404,664.817538L179.422595,658.149726L186.850754,647.649930L201.787186,633.194137L205.940920,628.458846L211.604348,612.166565 "/><path d="M211.604348,612.166565L212.619149,609.892604L219.397955,604.347988L222.891088,603.288921L236.699943,608.335112L247.598638,606.185793L263.864218,594.100199 "/><path d="M263.864218,594.100199L265.154664,595.688727 "/><path d="M107.017967,604.970971L122.261635,599.115009L142.989396,593.259218L153.947869,591.328091L167.545977,591.483827L171.878590,590.923180L186.684230,604.877524L196.041129,600.392092L203.068358,601.824927L206.835389,607.743269L203.581110,611.637010L211.604348,612.166565 "/><path d="M295.529535,553.488017L328.955868,558.844363L337.386476,559.373777L356.017915,562.363437L365.035071,562.238866L368.877242,563.577998L388.579414,567.470875L390.340511,567.221729L406.871301,570.242650 "/><path d="M263.864218,594.100199L278.636213,583.043146L291.651863,565.103997L294.163096,553.207747 "/><path d="M294.163096,553.207747L295.529535,553.488017 "/><path d="M315.439522,428.202657L311.827528,434.409160L376.448645,445.177770L458.722219,458.717180 "/><path d="M458.722219,458.717180L442.146507,471.946243L433.051957,490.624083L420.968572,519.298016L414.883881,539.381590L417.101253,537.668958L433.062551,531.223365L437.535749,545.017812 "/><path d="M294.163096,553.207747L288.369708,536.049755L276.490700,523.688204L275.490095,521.664346L276.041813,508.867818L272.481362,499.932535L262.723539,492.958938L255.908825,485.954457L255.405075,478.016346L256.717719,475.121350L283.124945,451.745045L289.161302,447.200841L298.400070,437.552537L302.796478,429.771994 "/><path d="M302.796478,429.771994L311.401976,427.984807L315.439522,428.202657 "/><path d="M307.459778,408.628258L308.114224,412.486967L307.637405,415.723362L302.796478,429.771994 "/><path d="M277.836164,391.980666L280.152260,394.438819L288.760268,399.199634L307.459778,408.628258 "/><path d="M458.722219,458.717180L470.366491,434.907118L484.248786,406.356633L508.379650,379.005859 "/><path d="M508.379650,379.005859L517.904594,380.592660L534.809875,376.516786 "/><path d="M534.809875,376.516786L538.374117,378.165794L562.505322,379.441451L565.036062,381.868333L566.469447,386.908876L559.449359,399.417453L562.968522,403.089275L560.772426,410.526484L564.303868,414.976497L570.447406,419.800052L569.163835,428.482750L570.682813,432.230612L590.823447,421.511664L615.030917,403.524920L624.869339,401.906817L625.557558,412.113540L630.693075,410.121942L637.804000,410.215298L641.130211,407.974774L657.487365,417.901735 "/><path d="M307.459778,408.628258L308.531574,405.609804L315.722906,401.533410L335.620430,393.847615L355.096381,381.152711L363.225585,376.361220L386.538113,370.636476L395.104333,367.463048L399.080085,360.463021L408.418389,354.334314 "/><path d="M408.418389,354.334314L410.892364,358.160844L458.533389,366.031911L467.027529,364.880787L465.879820,367.245266L491.119728,371.414285L493.440378,366.685255L511.716313,369.640885L509.764931,374.494437L512.192015,374.805566L508.379650,379.005859 "/><path d="M292.819133,182.869815L278.874980,189.521642L279.382852,198.287472L281.019242,200.867559L266.441959,209.291932L275.372929,208.452587L284.251538,220.763331L278.015903,225.519959L280.925271,226.483733L279.433509,234.318465L276.344519,235.468829L280.083066,244.671978L271.558583,246.164421L268.837118,240.785461L264.061244,243.086270L266.784543,251.139311L261.528812,255.212595L262.536312,257.606855L254.332500,261.244941L263.930212,265.349529L281.884703,278.410147L280.350022,298.095993L293.193690,315.762056L293.040670,330.567932L299.448540,327.612889L302.070784,336.820328L295.558728,339.619972L300.541655,349.107952L292.763942,361.240789L291.731622,369.423100L289.032726,373.156587L279.877495,377.232392L273.792370,387.873440 "/><path d="M279.531648,168.541167L282.511273,171.711409L285.841552,172.550599L292.819133,182.869815 "/><path d="M554.335731,283.168158L544.969010,298.095993L538.719203,304.782785L538.022895,312.869441L541.883701,325.622148L537.967441,336.913649L530.989319,342.917382L532.435243,348.890190L531.201844,358.783052L533.828776,359.840809L539.149615,357.258648L543.888563,357.351978L547.784815,355.329827L549.545030,362.827447L534.809875,376.516786 "/><path d="M408.418389,354.334314L415.967775,334.456215L422.513641,324.626785L418.937874,319.681150L428.559169,299.713243L440.243806,267.153087L443.430759,257.233722L423.300174,239.324150L379.898293,200.308019 "/><path d="M682.482123,157.166010L689.843884,155.394527L693.744281,159.372615L713.113948,164.904776L715.439343,166.023659L695.448327,179.450739L696.304753,183.709053L698.894768,186.910618L686.682072,204.069400L688.977078,207.644333L693.738138,210.753022L715.858699,196.950813L719.713228,201.893386L740.741922,190.516327L745.298092,191.106923L748.135267,196.204775L749.632376,204.846554L744.013638,211.468027L739.900925,209.136497L737.577644,211.343678L736.701323,218.369515L734.160692,220.701153L744.702063,226.110659L747.159929,226.483733L754.158151,237.427572L753.447001,241.407299L748.140749,253.222584L736.446125,267.775007L732.785539,273.279087L718.845549,279.125396L714.557782,278.814418L711.250436,275.860149L715.719094,284.878582L724.515752,283.572439L730.836027,279.996138L734.966708,281.053472L735.891305,285.593854L740.080455,286.464624L742.545856,289.014759L748.169801,290.352038L755.972291,286.682317L760.733956,278.472343L772.030484,278.627832L778.381648,275.766857L782.009292,275.580273L786.379597,280.027236L786.273041,283.790128L781.234203,289.139156L782.036912,293.337623L772.950260,309.510328L772.161054,318.312569L770.245512,323.786952L778.065186,325.279992L764.029524,333.149743L774.741132,356.232015L779.272436,364.663007 "/></g></svg>